%TF.GenerationSoftware,KiCad,Pcbnew,8.0.3*%
%TF.CreationDate,2024-07-13T10:44:47+10:00*%
%TF.ProjectId,EC Debug,45432044-6562-4756-972e-6b696361645f,rev?*%
%TF.SameCoordinates,Original*%
%TF.FileFunction,Paste,Top*%
%TF.FilePolarity,Positive*%
%FSLAX46Y46*%
G04 Gerber Fmt 4.6, Leading zero omitted, Abs format (unit mm)*
G04 Created by KiCad (PCBNEW 8.0.3) date 2024-07-13 10:44:47*
%MOMM*%
%LPD*%
G01*
G04 APERTURE LIST*
G04 Aperture macros list*
%AMRoundRect*
0 Rectangle with rounded corners*
0 $1 Rounding radius*
0 $2 $3 $4 $5 $6 $7 $8 $9 X,Y pos of 4 corners*
0 Add a 4 corners polygon primitive as box body*
4,1,4,$2,$3,$4,$5,$6,$7,$8,$9,$2,$3,0*
0 Add four circle primitives for the rounded corners*
1,1,$1+$1,$2,$3*
1,1,$1+$1,$4,$5*
1,1,$1+$1,$6,$7*
1,1,$1+$1,$8,$9*
0 Add four rect primitives between the rounded corners*
20,1,$1+$1,$2,$3,$4,$5,0*
20,1,$1+$1,$4,$5,$6,$7,0*
20,1,$1+$1,$6,$7,$8,$9,0*
20,1,$1+$1,$8,$9,$2,$3,0*%
G04 Aperture macros list end*
%ADD10R,0.600000X1.100000*%
%ADD11R,0.300000X1.100000*%
%ADD12RoundRect,0.135000X-0.135000X-0.185000X0.135000X-0.185000X0.135000X0.185000X-0.135000X0.185000X0*%
%ADD13RoundRect,0.140000X-0.170000X0.140000X-0.170000X-0.140000X0.170000X-0.140000X0.170000X0.140000X0*%
%ADD14R,0.300000X1.000000*%
%ADD15R,0.700000X1.150000*%
%ADD16RoundRect,0.135000X0.135000X0.185000X-0.135000X0.185000X-0.135000X-0.185000X0.135000X-0.185000X0*%
%ADD17RoundRect,0.150000X0.512500X0.150000X-0.512500X0.150000X-0.512500X-0.150000X0.512500X-0.150000X0*%
%ADD18RoundRect,0.140000X0.140000X0.170000X-0.140000X0.170000X-0.140000X-0.170000X0.140000X-0.170000X0*%
%ADD19RoundRect,0.140000X-0.140000X-0.170000X0.140000X-0.170000X0.140000X0.170000X-0.140000X0.170000X0*%
%ADD20RoundRect,0.150000X-0.825000X-0.150000X0.825000X-0.150000X0.825000X0.150000X-0.825000X0.150000X0*%
G04 APERTURE END LIST*
D10*
%TO.C,J2*%
X21800000Y23050000D03*
X22600000Y23050000D03*
D11*
X23750000Y23050000D03*
X24750000Y23050000D03*
X25250000Y23050000D03*
X26250000Y23050000D03*
D10*
X28200000Y23050000D03*
X27400000Y23050000D03*
D11*
X26750000Y23050000D03*
X25750000Y23050000D03*
X24250000Y23050000D03*
X23250000Y23050000D03*
%TD*%
D12*
%TO.C,R4*%
X23110000Y40330000D03*
X24130000Y40330000D03*
%TD*%
D13*
%TO.C,C2*%
X35335000Y37865000D03*
X35335000Y36905000D03*
%TD*%
D14*
%TO.C,P1*%
X22250000Y42780000D03*
X22750000Y42780000D03*
X23250000Y42780000D03*
X23750000Y42780000D03*
X24250000Y42780000D03*
X24750000Y42780000D03*
X25250000Y42780000D03*
X25750000Y42780000D03*
X26250000Y42780000D03*
X26750000Y42780000D03*
X27250000Y42780000D03*
X27750000Y42780000D03*
D15*
X21580000Y41940000D03*
%TD*%
D12*
%TO.C,R1*%
X22520000Y26550000D03*
X23540000Y26550000D03*
%TD*%
D16*
%TO.C,R3*%
X27300000Y40330000D03*
X26280000Y40330000D03*
%TD*%
D13*
%TO.C,C4*%
X26920000Y33640000D03*
X26920000Y32680000D03*
%TD*%
D17*
%TO.C,U1*%
X17027500Y34000000D03*
X17027500Y34950000D03*
X17027500Y35900000D03*
X14752500Y35900000D03*
X14752500Y34000000D03*
%TD*%
D18*
%TO.C,C1*%
X17510000Y37110000D03*
X16550000Y37110000D03*
%TD*%
D19*
%TO.C,C3*%
X14270000Y32790000D03*
X15230000Y32790000D03*
%TD*%
D20*
%TO.C,U2*%
X28700000Y37540000D03*
X28700000Y36270000D03*
X28700000Y35000000D03*
X28700000Y33730000D03*
X28700000Y32460000D03*
X28700000Y31190000D03*
X28700000Y29920000D03*
X28700000Y28650000D03*
X33650000Y28650000D03*
X33650000Y29920000D03*
X33650000Y31190000D03*
X33650000Y32460000D03*
X33650000Y33730000D03*
X33650000Y35000000D03*
X33650000Y36270000D03*
X33650000Y37540000D03*
%TD*%
D16*
%TO.C,R2*%
X30620000Y24380000D03*
X29600000Y24380000D03*
%TD*%
M02*
