%TF.GenerationSoftware,KiCad,Pcbnew,8.0.3*%
%TF.CreationDate,2024-07-13T10:44:47+10:00*%
%TF.ProjectId,EC Debug,45432044-6562-4756-972e-6b696361645f,rev?*%
%TF.SameCoordinates,Original*%
%TF.FileFunction,Copper,L1,Top*%
%TF.FilePolarity,Positive*%
%FSLAX46Y46*%
G04 Gerber Fmt 4.6, Leading zero omitted, Abs format (unit mm)*
G04 Created by KiCad (PCBNEW 8.0.3) date 2024-07-13 10:44:47*
%MOMM*%
%LPD*%
G01*
G04 APERTURE LIST*
G04 Aperture macros list*
%AMRoundRect*
0 Rectangle with rounded corners*
0 $1 Rounding radius*
0 $2 $3 $4 $5 $6 $7 $8 $9 X,Y pos of 4 corners*
0 Add a 4 corners polygon primitive as box body*
4,1,4,$2,$3,$4,$5,$6,$7,$8,$9,$2,$3,0*
0 Add four circle primitives for the rounded corners*
1,1,$1+$1,$2,$3*
1,1,$1+$1,$4,$5*
1,1,$1+$1,$6,$7*
1,1,$1+$1,$8,$9*
0 Add four rect primitives between the rounded corners*
20,1,$1+$1,$2,$3,$4,$5,0*
20,1,$1+$1,$4,$5,$6,$7,0*
20,1,$1+$1,$6,$7,$8,$9,0*
20,1,$1+$1,$8,$9,$2,$3,0*%
G04 Aperture macros list end*
%TA.AperFunction,ComponentPad*%
%ADD10O,1.000000X1.800000*%
%TD*%
%TA.AperFunction,ComponentPad*%
%ADD11O,1.000000X2.200000*%
%TD*%
%TA.AperFunction,SMDPad,CuDef*%
%ADD12R,0.600000X1.100000*%
%TD*%
%TA.AperFunction,SMDPad,CuDef*%
%ADD13R,0.300000X1.100000*%
%TD*%
%TA.AperFunction,SMDPad,CuDef*%
%ADD14RoundRect,0.135000X-0.135000X-0.185000X0.135000X-0.185000X0.135000X0.185000X-0.135000X0.185000X0*%
%TD*%
%TA.AperFunction,SMDPad,CuDef*%
%ADD15RoundRect,0.140000X-0.170000X0.140000X-0.170000X-0.140000X0.170000X-0.140000X0.170000X0.140000X0*%
%TD*%
%TA.AperFunction,SMDPad,CuDef*%
%ADD16R,0.300000X1.000000*%
%TD*%
%TA.AperFunction,SMDPad,CuDef*%
%ADD17R,0.700000X1.150000*%
%TD*%
%TA.AperFunction,SMDPad,CuDef*%
%ADD18RoundRect,0.135000X0.135000X0.185000X-0.135000X0.185000X-0.135000X-0.185000X0.135000X-0.185000X0*%
%TD*%
%TA.AperFunction,SMDPad,CuDef*%
%ADD19C,1.000000*%
%TD*%
%TA.AperFunction,SMDPad,CuDef*%
%ADD20RoundRect,0.150000X0.512500X0.150000X-0.512500X0.150000X-0.512500X-0.150000X0.512500X-0.150000X0*%
%TD*%
%TA.AperFunction,SMDPad,CuDef*%
%ADD21RoundRect,0.140000X0.140000X0.170000X-0.140000X0.170000X-0.140000X-0.170000X0.140000X-0.170000X0*%
%TD*%
%TA.AperFunction,SMDPad,CuDef*%
%ADD22RoundRect,0.140000X-0.140000X-0.170000X0.140000X-0.170000X0.140000X0.170000X-0.140000X0.170000X0*%
%TD*%
%TA.AperFunction,SMDPad,CuDef*%
%ADD23RoundRect,0.150000X-0.825000X-0.150000X0.825000X-0.150000X0.825000X0.150000X-0.825000X0.150000X0*%
%TD*%
%TA.AperFunction,SMDPad,CuDef*%
%ADD24R,1.500000X1.500000*%
%TD*%
%TA.AperFunction,ViaPad*%
%ADD25C,0.800000*%
%TD*%
%TA.AperFunction,ViaPad*%
%ADD26C,0.500000*%
%TD*%
%TA.AperFunction,Conductor*%
%ADD27C,0.200000*%
%TD*%
%TA.AperFunction,Conductor*%
%ADD28C,0.250000*%
%TD*%
%TA.AperFunction,Conductor*%
%ADD29C,0.500000*%
%TD*%
G04 APERTURE END LIST*
D10*
%TO.P,J2,0,SHIELD*%
%TO.N,Earth*%
X19380000Y21890000D03*
D11*
X19380000Y17890000D03*
D10*
X30620000Y21890000D03*
D11*
X30620000Y17890000D03*
D12*
%TO.P,J2,A1B12,GND*%
X21800000Y23050000D03*
%TO.P,J2,A4,VBUS*%
%TO.N,VBUS*%
X22600000Y23050000D03*
D13*
%TO.P,J2,A5,CC1*%
%TO.N,Net-(J2-CC1)*%
X23750000Y23050000D03*
%TO.P,J2,A6,D+*%
%TO.N,/D+*%
X24750000Y23050000D03*
%TO.P,J2,A7,D-*%
%TO.N,/D-*%
X25250000Y23050000D03*
%TO.P,J2,A8,SBU1*%
%TO.N,unconnected-(J2-SBU1-PadA8)*%
X26250000Y23050000D03*
D12*
%TO.P,J2,B1A12,GND*%
%TO.N,Earth*%
X28200000Y23050000D03*
%TO.P,J2,B4,VBUS*%
%TO.N,VBUS*%
X27400000Y23050000D03*
D13*
%TO.P,J2,B5,CC2*%
%TO.N,Net-(J2-CC2)*%
X26750000Y23050000D03*
%TO.P,J2,B6,D+*%
%TO.N,/D+*%
X25750000Y23050000D03*
%TO.P,J2,B7,D-*%
%TO.N,/D-*%
X24250000Y23050000D03*
%TO.P,J2,B8,SBU2*%
%TO.N,unconnected-(J2-SBU2-PadB8)*%
X23250000Y23050000D03*
%TD*%
D14*
%TO.P,R4,1*%
%TO.N,Earth*%
X23110000Y40330000D03*
%TO.P,R4,2*%
%TO.N,Net-(P1-CC)*%
X24130000Y40330000D03*
%TD*%
D15*
%TO.P,C2,1*%
%TO.N,+3V3*%
X35335000Y37865000D03*
%TO.P,C2,2*%
%TO.N,Earth*%
X35335000Y36905000D03*
%TD*%
D16*
%TO.P,P1,A1,GND*%
%TO.N,Earth*%
X22250000Y42780000D03*
%TO.P,P1,A2*%
%TO.N,N/C*%
X22750000Y42780000D03*
%TO.P,P1,A3*%
X23250000Y42780000D03*
%TO.P,P1,A4*%
X23750000Y42780000D03*
%TO.P,P1,A5,CC*%
%TO.N,Net-(P1-CC)*%
X24250000Y42780000D03*
%TO.P,P1,A6*%
%TO.N,N/C*%
X24750000Y42780000D03*
%TO.P,P1,A7*%
X25250000Y42780000D03*
%TO.P,P1,A8,DOUT*%
%TO.N,Net-(P1-DOUT)*%
X25750000Y42780000D03*
%TO.P,P1,A9*%
%TO.N,N/C*%
X26250000Y42780000D03*
%TO.P,P1,A10*%
X26750000Y42780000D03*
%TO.P,P1,A11*%
X27250000Y42780000D03*
%TO.P,P1,A12,GND*%
%TO.N,Earth*%
X27750000Y42780000D03*
D17*
%TO.P,P1,S1,SHIELD*%
X21580000Y41940000D03*
%TD*%
D14*
%TO.P,R1,1*%
%TO.N,Earth*%
X22520000Y26550000D03*
%TO.P,R1,2*%
%TO.N,Net-(J2-CC1)*%
X23540000Y26550000D03*
%TD*%
D18*
%TO.P,R3,1*%
%TO.N,Earth*%
X27300000Y40330000D03*
%TO.P,R3,2*%
%TO.N,Net-(P1-VCONN)*%
X26280000Y40330000D03*
%TD*%
D15*
%TO.P,C4,1*%
%TO.N,+3V3*%
X26920000Y33640000D03*
%TO.P,C4,2*%
%TO.N,Earth*%
X26920000Y32680000D03*
%TD*%
D19*
%TO.P,TP5,1,1*%
%TO.N,+3V3*%
X14550000Y31110000D03*
%TD*%
D20*
%TO.P,U1,1,VIN*%
%TO.N,VBUS*%
X17027500Y34000000D03*
%TO.P,U1,2,GND*%
%TO.N,Earth*%
X17027500Y34950000D03*
%TO.P,U1,3,EN*%
%TO.N,VBUS*%
X17027500Y35900000D03*
%TO.P,U1,4,NC*%
%TO.N,unconnected-(U1-NC-Pad4)*%
X14752500Y35900000D03*
%TO.P,U1,5,VOUT*%
%TO.N,+3V3*%
X14752500Y34000000D03*
%TD*%
D21*
%TO.P,C1,1*%
%TO.N,VBUS*%
X17510000Y37110000D03*
%TO.P,C1,2*%
%TO.N,Earth*%
X16550000Y37110000D03*
%TD*%
D22*
%TO.P,C3,1*%
%TO.N,+3V3*%
X14270000Y32790000D03*
%TO.P,C3,2*%
%TO.N,Earth*%
X15230000Y32790000D03*
%TD*%
D23*
%TO.P,U2,1,GND*%
%TO.N,Earth*%
X28700000Y37540000D03*
%TO.P,U2,2,TXD*%
%TO.N,Net-(P1-DIN)*%
X28700000Y36270000D03*
%TO.P,U2,3,RXD*%
%TO.N,Net-(P1-DOUT)*%
X28700000Y35000000D03*
%TO.P,U2,4,V3*%
%TO.N,+3V3*%
X28700000Y33730000D03*
%TO.P,U2,5,UD+*%
%TO.N,/D+*%
X28700000Y32460000D03*
%TO.P,U2,6,UD-*%
%TO.N,/D-*%
X28700000Y31190000D03*
%TO.P,U2,7,NC*%
%TO.N,unconnected-(U2-NC-Pad7)*%
X28700000Y29920000D03*
%TO.P,U2,8,NC*%
%TO.N,unconnected-(U2-NC-Pad8)*%
X28700000Y28650000D03*
%TO.P,U2,9,~{CTS}*%
%TO.N,unconnected-(U2-~{CTS}-Pad9)*%
X33650000Y28650000D03*
%TO.P,U2,10,~{DSR}*%
%TO.N,unconnected-(U2-~{DSR}-Pad10)*%
X33650000Y29920000D03*
%TO.P,U2,11,~{RI}*%
%TO.N,unconnected-(U2-~{RI}-Pad11)*%
X33650000Y31190000D03*
%TO.P,U2,12,~{DCD}*%
%TO.N,unconnected-(U2-~{DCD}-Pad12)*%
X33650000Y32460000D03*
%TO.P,U2,13,~{DTR}*%
%TO.N,unconnected-(U2-~{DTR}-Pad13)*%
X33650000Y33730000D03*
%TO.P,U2,14,~{RTS}*%
%TO.N,unconnected-(U2-~{RTS}-Pad14)*%
X33650000Y35000000D03*
%TO.P,U2,15,R232*%
%TO.N,unconnected-(U2-R232-Pad15)*%
X33650000Y36270000D03*
%TO.P,U2,16,VCC*%
%TO.N,+3V3*%
X33650000Y37540000D03*
%TD*%
D24*
%TO.P,TP1,1,1*%
%TO.N,Earth*%
X19300000Y43820000D03*
%TD*%
%TO.P,TP3,1,1*%
%TO.N,Earth*%
X30700000Y43820000D03*
%TD*%
D18*
%TO.P,R2,1*%
%TO.N,Earth*%
X30620000Y24380000D03*
%TO.P,R2,2*%
%TO.N,Net-(J2-CC2)*%
X29600000Y24380000D03*
%TD*%
D25*
%TO.N,/D+*%
X25681232Y26308768D03*
%TO.N,/D-*%
X24938768Y27051232D03*
%TO.N,Earth*%
X14650000Y17860000D03*
D26*
X18858000Y44248500D03*
X30224500Y44248500D03*
X18858000Y43359500D03*
X19747000Y43359500D03*
D25*
X34890000Y42620000D03*
D26*
X31177000Y44248500D03*
D25*
X25390000Y29110000D03*
X35390000Y17540000D03*
D26*
X19747000Y44248500D03*
X31177000Y43359500D03*
D25*
X15790000Y42840000D03*
D26*
X30224500Y43359500D03*
D25*
%TO.N,Net-(P1-DIN)*%
X26960000Y37540000D03*
%TO.N,/D-*%
X28748768Y26641232D03*
%TO.N,/D+*%
X29370000Y25760000D03*
%TO.N,Net-(P1-VCONN)*%
X26560000Y41300000D03*
%TO.N,VBUS*%
X21522972Y24750790D03*
X27630000Y24500000D03*
%TD*%
D27*
%TO.N,/D+*%
X30162501Y32460000D02*
X28700000Y32460000D01*
X31285000Y27856801D02*
X31285000Y31337501D01*
X29370000Y25941801D02*
X31285000Y27856801D01*
X31285000Y31337501D02*
X30162501Y32460000D01*
X29370000Y25760000D02*
X29370000Y25941801D01*
%TO.N,/D-*%
X30230000Y31190000D02*
X28700000Y31190000D01*
X30835000Y28043199D02*
X30835000Y30585000D01*
X30835000Y30585000D02*
X30230000Y31190000D01*
X28748768Y26641232D02*
X29433033Y26641232D01*
X29433033Y26641232D02*
X30835000Y28043199D01*
D28*
%TO.N,Net-(J2-CC2)*%
X27060000Y25280000D02*
X28700000Y25280000D01*
X26750000Y24970000D02*
X27060000Y25280000D01*
X28700000Y25280000D02*
X29600000Y24380000D01*
X26750000Y23050000D02*
X26750000Y24970000D01*
D27*
%TO.N,/D+*%
X25750000Y24610000D02*
X25750000Y23050000D01*
X26900000Y25760000D02*
X25750000Y24610000D01*
X29370000Y25760000D02*
X26900000Y25760000D01*
%TO.N,/D-*%
X25250000Y24740000D02*
X25250000Y23050000D01*
X27151232Y26641232D02*
X25250000Y24740000D01*
X28748768Y26641232D02*
X27151232Y26641232D01*
%TO.N,/D+*%
X24725000Y23075000D02*
X24725000Y25776801D01*
X24725000Y25776801D02*
X25256967Y26308768D01*
X24750000Y23050000D02*
X24725000Y23075000D01*
X25256967Y26308768D02*
X25681232Y26308768D01*
%TO.N,/D-*%
X24275000Y25963199D02*
X24938768Y26626967D01*
X24938768Y26626967D02*
X24938768Y27051232D01*
X24275000Y23075000D02*
X24275000Y25963199D01*
X24250000Y23050000D02*
X24275000Y23075000D01*
D28*
%TO.N,Net-(J2-CC1)*%
X23750000Y26310000D02*
X23400000Y26660000D01*
X23750000Y23050000D02*
X23750000Y26310000D01*
D29*
%TO.N,VBUS*%
X22600000Y23780000D02*
X22600000Y23050000D01*
X21629210Y24750790D02*
X22600000Y23780000D01*
X21522972Y24750790D02*
X21629210Y24750790D01*
X27630000Y24500000D02*
X27400000Y24270000D01*
X27400000Y24270000D02*
X27400000Y23050000D01*
D28*
%TO.N,+3V3*%
X28700000Y33730000D02*
X27010000Y33730000D01*
X14550000Y31110000D02*
X14550000Y32510000D01*
X14270000Y33517500D02*
X14270000Y32790000D01*
X22058510Y31110000D02*
X24618510Y33670000D01*
X14752500Y34000000D02*
X14270000Y33517500D01*
X14550000Y32510000D02*
X14270000Y32790000D01*
X33650000Y37540000D02*
X35010000Y37540000D01*
X24618510Y33670000D02*
X26890000Y33670000D01*
X35010000Y37540000D02*
X35335000Y37865000D01*
X29459092Y33730000D02*
X33269092Y37540000D01*
X14550000Y31110000D02*
X22058510Y31110000D01*
%TO.N,Earth*%
X22250000Y42610000D02*
X21580000Y41940000D01*
%TO.N,VBUS*%
X17510000Y36382500D02*
X17027500Y35900000D01*
D29*
X21313762Y24960000D02*
X19356497Y24960000D01*
X16462316Y35900000D02*
X17027500Y35900000D01*
D28*
X17510000Y37110000D02*
X17510000Y36382500D01*
D29*
X15602316Y34860000D02*
X15602316Y35040000D01*
X17027500Y34000000D02*
X16462316Y34000000D01*
X14277316Y35040000D02*
X15602316Y35040000D01*
X13530000Y30786497D02*
X13530000Y34292684D01*
X15602316Y35040000D02*
X16462316Y35900000D01*
X19356497Y24960000D02*
X13530000Y30786497D01*
X13530000Y34292684D02*
X14277316Y35040000D01*
X21522972Y24750790D02*
X21313762Y24960000D01*
X16462316Y34000000D02*
X15602316Y34860000D01*
D28*
%TO.N,Net-(P1-DOUT)*%
X25750000Y40774280D02*
X25685000Y40709280D01*
X25750000Y42780000D02*
X25750000Y40774280D01*
X25685000Y37634092D02*
X28319092Y35000000D01*
X25685000Y40709280D02*
X25685000Y37634092D01*
%TO.N,Net-(P1-DIN)*%
X28230000Y36270000D02*
X26960000Y37540000D01*
%TO.N,Net-(P1-VCONN)*%
X26280000Y41020000D02*
X26560000Y41300000D01*
X26280000Y40330000D02*
X26280000Y41020000D01*
%TO.N,Net-(P1-CC)*%
X24250000Y42780000D02*
X24250000Y40450000D01*
D27*
%TO.N,/D+*%
X28700000Y32460000D02*
X29375000Y32460000D01*
D28*
%TO.N,Net-(P1-CC)*%
X24250000Y40450000D02*
X24130000Y40330000D01*
%TO.N,+3V3*%
X33269092Y37540000D02*
X33650000Y37540000D01*
%TO.N,Earth*%
X22250000Y42780000D02*
X22250000Y42610000D01*
%TO.N,+3V3*%
X28700000Y33730000D02*
X29459092Y33730000D01*
X27010000Y33730000D02*
X26920000Y33640000D01*
%TO.N,Net-(P1-DOUT)*%
X28319092Y35000000D02*
X28700000Y35000000D01*
%TO.N,Net-(P1-DIN)*%
X28700000Y36270000D02*
X28230000Y36270000D01*
%TO.N,+3V3*%
X26890000Y33670000D02*
X26920000Y33640000D01*
%TD*%
%TA.AperFunction,Conductor*%
%TO.N,Earth*%
G36*
X20001517Y44819926D02*
G01*
X20048258Y44817647D01*
X20069125Y44812966D01*
X20156823Y44776640D01*
X20177094Y44763094D01*
X20243093Y44697095D01*
X20256640Y44676822D01*
X20292963Y44589132D01*
X20297646Y44568259D01*
X20299926Y44521519D01*
X20300000Y44518474D01*
X20300000Y43119989D01*
X20302438Y43069993D01*
X20302882Y43060900D01*
X20348116Y42951696D01*
X20431696Y42868116D01*
X20540900Y42822882D01*
X20600000Y42820000D01*
X20600016Y42820000D01*
X20720095Y42820000D01*
X20764289Y42801694D01*
X20782595Y42757500D01*
X20778654Y42735658D01*
X20736402Y42622378D01*
X20730000Y42562836D01*
X20730000Y42190000D01*
X21767500Y42190000D01*
X21811694Y42171694D01*
X21830000Y42127500D01*
X21830000Y40865000D01*
X21977822Y40865000D01*
X21977835Y40865001D01*
X22037377Y40871403D01*
X22172091Y40921648D01*
X22172094Y40921650D01*
X22287186Y41007809D01*
X22287191Y41007814D01*
X22373350Y41122906D01*
X22373352Y41122909D01*
X22423597Y41257623D01*
X22429999Y41317165D01*
X22430000Y41317178D01*
X22430000Y41721943D01*
X22448306Y41766137D01*
X22485820Y41784085D01*
X22507377Y41786403D01*
X22642091Y41836648D01*
X22642094Y41836650D01*
X22757186Y41922809D01*
X22843353Y42037913D01*
X22843699Y42038839D01*
X22844088Y42039258D01*
X22845496Y42041835D01*
X22846153Y42041476D01*
X22876293Y42073851D01*
X22902259Y42079500D01*
X22919748Y42079500D01*
X22978231Y42091133D01*
X22978231Y42091134D01*
X22984269Y42092334D01*
X22984685Y42090242D01*
X23015315Y42090246D01*
X23015731Y42092334D01*
X23021768Y42091134D01*
X23021769Y42091133D01*
X23080252Y42079500D01*
X23419748Y42079500D01*
X23478231Y42091133D01*
X23478231Y42091134D01*
X23484269Y42092334D01*
X23484685Y42090242D01*
X23515315Y42090246D01*
X23515731Y42092334D01*
X23521768Y42091134D01*
X23521769Y42091133D01*
X23580252Y42079500D01*
X23862000Y42079500D01*
X23906194Y42061194D01*
X23924500Y42017000D01*
X23924500Y40892127D01*
X23906194Y40847933D01*
X23888413Y40835482D01*
X23865144Y40824632D01*
X23817354Y40822547D01*
X23784934Y40849462D01*
X23750734Y40907292D01*
X23637288Y41020738D01*
X23499195Y41102405D01*
X23499194Y41102406D01*
X23360000Y41142847D01*
X23360000Y39517156D01*
X23499194Y39557595D01*
X23499195Y39557596D01*
X23637288Y39639263D01*
X23637290Y39639264D01*
X23750734Y39752709D01*
X23784934Y39810539D01*
X23823187Y39839261D01*
X23865144Y39835370D01*
X23906827Y39815932D01*
X23955684Y39809500D01*
X23955690Y39809500D01*
X24304310Y39809500D01*
X24304316Y39809500D01*
X24353173Y39815932D01*
X24460404Y39865935D01*
X24544065Y39949596D01*
X24594068Y40056827D01*
X24600500Y40105684D01*
X24600500Y40554316D01*
X24594068Y40603173D01*
X24581356Y40630434D01*
X24575500Y40656848D01*
X24575500Y42017000D01*
X24593806Y42061194D01*
X24638000Y42079500D01*
X24919748Y42079500D01*
X24978231Y42091133D01*
X24978231Y42091134D01*
X24984269Y42092334D01*
X24984685Y42090242D01*
X25015315Y42090246D01*
X25015731Y42092334D01*
X25021768Y42091134D01*
X25021769Y42091133D01*
X25080252Y42079500D01*
X25362000Y42079500D01*
X25406194Y42061194D01*
X25424500Y42017000D01*
X25424500Y40925830D01*
X25416127Y40894580D01*
X25381682Y40834919D01*
X25381681Y40834917D01*
X25365760Y40775503D01*
X25365761Y40775502D01*
X25359500Y40752135D01*
X25359500Y37591241D01*
X25359501Y37591233D01*
X25381680Y37508457D01*
X25381684Y37508448D01*
X25424532Y37434234D01*
X25424539Y37434225D01*
X27526824Y35331942D01*
X27545130Y35287748D01*
X27538781Y35260301D01*
X27534427Y35251395D01*
X27524500Y35183260D01*
X27524500Y34816741D01*
X27534426Y34748610D01*
X27534426Y34748609D01*
X27534427Y34748607D01*
X27585802Y34643517D01*
X27668517Y34560802D01*
X27773607Y34509427D01*
X27841740Y34499500D01*
X27841741Y34499500D01*
X29558258Y34499500D01*
X29558260Y34499500D01*
X29617678Y34508158D01*
X29664047Y34496416D01*
X29688534Y34455323D01*
X29676792Y34408951D01*
X29670881Y34402117D01*
X29517571Y34248806D01*
X29473377Y34230500D01*
X27841740Y34230500D01*
X27830121Y34228808D01*
X27773609Y34220574D01*
X27773607Y34220573D01*
X27697282Y34183260D01*
X27668515Y34169197D01*
X27585801Y34086483D01*
X27582790Y34082265D01*
X27580359Y34084001D01*
X27551974Y34058900D01*
X27531641Y34055500D01*
X27318735Y34055500D01*
X27292321Y34061356D01*
X27288316Y34063224D01*
X27202976Y34103019D01*
X27179486Y34113973D01*
X27129901Y34120500D01*
X26710108Y34120500D01*
X26710106Y34120500D01*
X26710100Y34120499D01*
X26660513Y34113972D01*
X26660511Y34113972D01*
X26660510Y34113971D01*
X26551683Y34063224D01*
X26526975Y34038515D01*
X26502265Y34013806D01*
X26458073Y33995500D01*
X24665204Y33995500D01*
X24665188Y33995501D01*
X24661363Y33995501D01*
X24575657Y33995501D01*
X24575651Y33995501D01*
X24492874Y33973320D01*
X24464863Y33957147D01*
X24464862Y33957148D01*
X24418649Y33930466D01*
X24418643Y33930461D01*
X21941989Y31453806D01*
X21897795Y31435500D01*
X15209298Y31435500D01*
X15165104Y31453806D01*
X15157862Y31462496D01*
X15078188Y31577923D01*
X15078181Y31577931D01*
X15049129Y31603669D01*
X14950852Y31690734D01*
X14948921Y31691748D01*
X14908953Y31712726D01*
X14878329Y31749474D01*
X14875500Y31768066D01*
X14875500Y31932614D01*
X14893806Y31976808D01*
X14914778Y31985495D01*
X15480000Y31985495D01*
X15626196Y32027969D01*
X15626197Y32027970D01*
X15765377Y32110280D01*
X15765379Y32110281D01*
X15879719Y32224621D01*
X15879720Y32224623D01*
X15962030Y32363803D01*
X15962031Y32363804D01*
X16007145Y32519087D01*
X16007145Y32519092D01*
X16008791Y32540000D01*
X15480000Y32540000D01*
X15480000Y31985495D01*
X14914778Y31985495D01*
X14938000Y31995114D01*
X14955438Y31992632D01*
X14980000Y31985496D01*
X14980000Y32977500D01*
X14998306Y33021694D01*
X15042500Y33040000D01*
X16008789Y33040000D01*
X16007143Y33060922D01*
X15962031Y33216197D01*
X15962030Y33216198D01*
X15879720Y33355378D01*
X15765377Y33469721D01*
X15626197Y33552031D01*
X15626197Y33552032D01*
X15595329Y33561000D01*
X15557997Y33590910D01*
X15552749Y33638456D01*
X15556618Y33648468D01*
X15605573Y33748607D01*
X15615500Y33816740D01*
X15615500Y34058825D01*
X15633806Y34103019D01*
X15678000Y34121325D01*
X15722194Y34103019D01*
X16185696Y33639515D01*
X16185699Y33639512D01*
X16185701Y33639511D01*
X16185702Y33639510D01*
X16282937Y33583372D01*
X16295877Y33573442D01*
X16308517Y33560802D01*
X16413607Y33509427D01*
X16481740Y33499500D01*
X16481741Y33499500D01*
X17573259Y33499500D01*
X17573260Y33499500D01*
X17641393Y33509427D01*
X17746483Y33560802D01*
X17829198Y33643517D01*
X17880573Y33748607D01*
X17890500Y33816740D01*
X17890500Y34183260D01*
X17880573Y34251393D01*
X17829198Y34356483D01*
X17746483Y34439198D01*
X17641393Y34490573D01*
X17641391Y34490574D01*
X17641390Y34490574D01*
X17580123Y34499500D01*
X17573260Y34500500D01*
X17573259Y34500500D01*
X16624808Y34500500D01*
X16580614Y34518806D01*
X16193613Y34905806D01*
X16175307Y34950000D01*
X16193613Y34994194D01*
X16382680Y35183260D01*
X16580614Y35381194D01*
X16624808Y35399500D01*
X17573259Y35399500D01*
X17573260Y35399500D01*
X17641393Y35409427D01*
X17746483Y35460802D01*
X17829198Y35543517D01*
X17880573Y35648607D01*
X17890500Y35716740D01*
X17890500Y36083260D01*
X17880573Y36151393D01*
X17829198Y36256483D01*
X17829197Y36256484D01*
X17829151Y36256579D01*
X17824931Y36300206D01*
X17828656Y36314107D01*
X17835500Y36339647D01*
X17835500Y36425353D01*
X17835500Y36618071D01*
X17853806Y36662265D01*
X17933222Y36741682D01*
X17933224Y36741684D01*
X17983972Y36850513D01*
X17990500Y36900099D01*
X17990499Y37319900D01*
X17983972Y37369487D01*
X17933224Y37478316D01*
X17933222Y37478318D01*
X17933222Y37478319D01*
X17848318Y37563223D01*
X17739486Y37613973D01*
X17689901Y37620500D01*
X17330108Y37620500D01*
X17330105Y37620500D01*
X17330100Y37620499D01*
X17280513Y37613972D01*
X17280511Y37613972D01*
X17280182Y37613928D01*
X17233977Y37626311D01*
X17218230Y37644079D01*
X17199720Y37675378D01*
X17085377Y37789721D01*
X16946197Y37872031D01*
X16946196Y37872032D01*
X16800000Y37914507D01*
X16800000Y36922500D01*
X16781694Y36878306D01*
X16737500Y36860000D01*
X15771211Y36860000D01*
X15772856Y36839079D01*
X15817968Y36683804D01*
X15817969Y36683803D01*
X15900279Y36544623D01*
X16014622Y36430280D01*
X16157189Y36345966D01*
X16156400Y36344633D01*
X16186003Y36314107D01*
X16185269Y36266277D01*
X16172094Y36246884D01*
X15722194Y35796983D01*
X15678000Y35778677D01*
X15633806Y35796983D01*
X15615500Y35841177D01*
X15615500Y36083260D01*
X15614993Y36086741D01*
X15605573Y36151393D01*
X15554198Y36256483D01*
X15471483Y36339198D01*
X15366393Y36390573D01*
X15366391Y36390574D01*
X15366390Y36390574D01*
X15312267Y36398460D01*
X15298260Y36400500D01*
X14206740Y36400500D01*
X14195121Y36398808D01*
X14138609Y36390574D01*
X14138607Y36390573D01*
X14034438Y36339648D01*
X14033515Y36339197D01*
X13950803Y36256485D01*
X13899426Y36151391D01*
X13889500Y36083260D01*
X13889500Y35716741D01*
X13899426Y35648610D01*
X13899426Y35648609D01*
X13899427Y35648607D01*
X13950802Y35543517D01*
X13950803Y35543516D01*
X14003071Y35491248D01*
X14021377Y35447054D01*
X14003071Y35402860D01*
X13169515Y34569304D01*
X13169508Y34569295D01*
X13110202Y34466575D01*
X13110201Y34466571D01*
X13110201Y34466570D01*
X13104216Y34444236D01*
X13079500Y34351998D01*
X13079500Y30727187D01*
X13086939Y30699427D01*
X13086939Y30699426D01*
X13110199Y30612614D01*
X13110203Y30612605D01*
X13169508Y30509887D01*
X13169515Y30509878D01*
X19079877Y24599516D01*
X19079881Y24599513D01*
X19079883Y24599511D01*
X19182610Y24540201D01*
X19206823Y24533714D01*
X19297188Y24509500D01*
X20931179Y24509500D01*
X20975373Y24491194D01*
X20988921Y24470919D01*
X20998435Y24447950D01*
X20998436Y24447949D01*
X21094689Y24322508D01*
X21220130Y24226255D01*
X21220133Y24226253D01*
X21323618Y24183388D01*
X21357442Y24149564D01*
X21357442Y24101728D01*
X21323618Y24067904D01*
X21321542Y24067087D01*
X21257908Y24043353D01*
X21257905Y24043351D01*
X21142813Y23957192D01*
X21142808Y23957187D01*
X21056649Y23842095D01*
X21056647Y23842092D01*
X21006402Y23707378D01*
X21000000Y23647836D01*
X21000000Y23300000D01*
X21987500Y23300000D01*
X22031694Y23281694D01*
X22050000Y23237500D01*
X22050000Y22862500D01*
X22031694Y22818306D01*
X21987500Y22800000D01*
X21000000Y22800000D01*
X21000000Y22452165D01*
X21006772Y22389181D01*
X20993295Y22343283D01*
X20951311Y22320358D01*
X20944630Y22320000D01*
X20442500Y22320000D01*
X20398306Y22338306D01*
X20380000Y22382500D01*
X20380000Y22388491D01*
X20379999Y22388492D01*
X20341570Y22581690D01*
X20341568Y22581698D01*
X20266188Y22763679D01*
X20266187Y22763681D01*
X20156751Y22927463D01*
X20017462Y23066752D01*
X19853680Y23176188D01*
X19853678Y23176189D01*
X19671688Y23251572D01*
X19630000Y23259864D01*
X19630000Y22456975D01*
X19620060Y22474191D01*
X19564205Y22530046D01*
X19495796Y22569542D01*
X19419496Y22589986D01*
X19340504Y22589986D01*
X19264204Y22569542D01*
X19195795Y22530046D01*
X19139940Y22474191D01*
X19130000Y22456975D01*
X19130000Y23259864D01*
X19088311Y23251572D01*
X18906321Y23176189D01*
X18906319Y23176188D01*
X18742537Y23066752D01*
X18603248Y22927463D01*
X18493812Y22763681D01*
X18493811Y22763679D01*
X18418431Y22581698D01*
X18418429Y22581690D01*
X18380000Y22388492D01*
X18380000Y22140000D01*
X19080000Y22140000D01*
X19080000Y21640000D01*
X18380000Y21640000D01*
X18380000Y21391509D01*
X18418429Y21198311D01*
X18418431Y21198303D01*
X18493811Y21016322D01*
X18493812Y21016320D01*
X18603248Y20852538D01*
X18742537Y20713249D01*
X18906319Y20603813D01*
X18906321Y20603812D01*
X19088302Y20528432D01*
X19088310Y20528430D01*
X19129999Y20520137D01*
X19130000Y20520137D01*
X19130000Y21323026D01*
X19139940Y21305809D01*
X19195795Y21249954D01*
X19264204Y21210458D01*
X19340504Y21190014D01*
X19419496Y21190014D01*
X19495796Y21210458D01*
X19564205Y21249954D01*
X19620060Y21305809D01*
X19630000Y21323026D01*
X19630000Y20520137D01*
X19671689Y20528430D01*
X19671697Y20528432D01*
X19853678Y20603812D01*
X19853680Y20603813D01*
X20017462Y20713249D01*
X20156751Y20852538D01*
X20235533Y20970443D01*
X20275307Y20997019D01*
X20322223Y20987687D01*
X20348799Y20947913D01*
X20350000Y20935720D01*
X20350000Y19044281D01*
X20331694Y19000087D01*
X20287500Y18981781D01*
X20243306Y19000087D01*
X20235533Y19009558D01*
X20156751Y19127463D01*
X20017462Y19266752D01*
X19853680Y19376188D01*
X19853678Y19376189D01*
X19671688Y19451572D01*
X19630000Y19459864D01*
X19630000Y18656975D01*
X19620060Y18674191D01*
X19564205Y18730046D01*
X19495796Y18769542D01*
X19419496Y18789986D01*
X19340504Y18789986D01*
X19264204Y18769542D01*
X19195795Y18730046D01*
X19139940Y18674191D01*
X19130000Y18656975D01*
X19130000Y19459864D01*
X19088311Y19451572D01*
X18906321Y19376189D01*
X18906319Y19376188D01*
X18742537Y19266752D01*
X18603248Y19127463D01*
X18493812Y18963681D01*
X18493811Y18963679D01*
X18418431Y18781698D01*
X18418429Y18781690D01*
X18380000Y18588492D01*
X18380000Y18140000D01*
X19080000Y18140000D01*
X19080000Y17640000D01*
X18380000Y17640000D01*
X18380000Y17191509D01*
X18418429Y16998311D01*
X18418431Y16998303D01*
X18493811Y16816322D01*
X18493812Y16816320D01*
X18603248Y16652538D01*
X18742537Y16513249D01*
X18906319Y16403813D01*
X18906321Y16403812D01*
X19088302Y16328432D01*
X19088310Y16328430D01*
X19129999Y16320137D01*
X19130000Y16320137D01*
X19130000Y17123026D01*
X19139940Y17105809D01*
X19195795Y17049954D01*
X19264204Y17010458D01*
X19340504Y16990014D01*
X19419496Y16990014D01*
X19495796Y17010458D01*
X19564205Y17049954D01*
X19620060Y17105809D01*
X19630000Y17123026D01*
X19630000Y16320137D01*
X19671689Y16328430D01*
X19671697Y16328432D01*
X19853678Y16403812D01*
X19853680Y16403813D01*
X20017462Y16513249D01*
X20156751Y16652538D01*
X20235533Y16770443D01*
X20275307Y16797019D01*
X20322223Y16787687D01*
X20348799Y16747913D01*
X20350000Y16735720D01*
X20350000Y15882500D01*
X20331694Y15838306D01*
X20287500Y15820000D01*
X12301527Y15820000D01*
X12298483Y15820074D01*
X12296775Y15820158D01*
X12251741Y15822354D01*
X12230870Y15827037D01*
X12143178Y15863360D01*
X12122905Y15876907D01*
X12056906Y15942906D01*
X12043360Y15963177D01*
X12007034Y16050875D01*
X12002353Y16071743D01*
X12000074Y16118483D01*
X12000000Y16121527D01*
X12000000Y25426285D01*
X12349500Y25426285D01*
X12349500Y25213716D01*
X12349501Y25213700D01*
X12382753Y25003760D01*
X12382753Y25003759D01*
X12448442Y24801590D01*
X12448446Y24801582D01*
X12544949Y24612183D01*
X12669897Y24440206D01*
X12820205Y24289898D01*
X12992182Y24164950D01*
X12992184Y24164949D01*
X13181588Y24068443D01*
X13383757Y24002754D01*
X13472244Y23988739D01*
X13593699Y23969502D01*
X13593705Y23969502D01*
X13593713Y23969500D01*
X13593715Y23969500D01*
X13806285Y23969500D01*
X13806287Y23969500D01*
X14016243Y24002754D01*
X14218412Y24068443D01*
X14407816Y24164949D01*
X14579792Y24289896D01*
X14730104Y24440208D01*
X14855051Y24612184D01*
X14951557Y24801588D01*
X15017246Y25003757D01*
X15050500Y25213713D01*
X15050500Y25426287D01*
X15017246Y25636243D01*
X14951557Y25838412D01*
X14855051Y26027816D01*
X14854404Y26028706D01*
X14730102Y26199795D01*
X14579794Y26350103D01*
X14407817Y26475051D01*
X14218418Y26571554D01*
X14218410Y26571558D01*
X14016241Y26637247D01*
X13806300Y26670499D01*
X13806288Y26670500D01*
X13806287Y26670500D01*
X13593713Y26670500D01*
X13593711Y26670500D01*
X13593699Y26670499D01*
X13383759Y26637247D01*
X13383758Y26637247D01*
X13181589Y26571558D01*
X13181581Y26571554D01*
X12992182Y26475051D01*
X12820205Y26350103D01*
X12669897Y26199795D01*
X12544949Y26027818D01*
X12448446Y25838419D01*
X12448442Y25838411D01*
X12382753Y25636242D01*
X12382753Y25636241D01*
X12349501Y25426301D01*
X12349500Y25426285D01*
X12000000Y25426285D01*
X12000000Y37360001D01*
X15771208Y37360001D01*
X15771209Y37360000D01*
X16300000Y37360000D01*
X16300000Y37914506D01*
X16299999Y37914507D01*
X16153803Y37872032D01*
X16153802Y37872031D01*
X16014622Y37789721D01*
X16014621Y37789719D01*
X15900281Y37675379D01*
X15900279Y37675378D01*
X15817969Y37536198D01*
X15817968Y37536197D01*
X15772854Y37380914D01*
X15772854Y37380909D01*
X15771208Y37360001D01*
X12000000Y37360001D01*
X12000000Y40080000D01*
X22340069Y40080000D01*
X22342832Y40044881D01*
X22342832Y40044876D01*
X22387594Y39890806D01*
X22387595Y39890805D01*
X22469262Y39752712D01*
X22582711Y39639263D01*
X22720804Y39557596D01*
X22720805Y39557595D01*
X22859999Y39517156D01*
X22860000Y39517156D01*
X22860000Y40080000D01*
X22340069Y40080000D01*
X12000000Y40080000D01*
X12000000Y40580000D01*
X22340068Y40580000D01*
X22860000Y40580000D01*
X22860000Y41142846D01*
X22859999Y41142847D01*
X22720805Y41102406D01*
X22720804Y41102405D01*
X22582711Y41020738D01*
X22582710Y41020736D01*
X22469264Y40907290D01*
X22469262Y40907289D01*
X22387595Y40769196D01*
X22387594Y40769195D01*
X22342832Y40615125D01*
X22342832Y40615120D01*
X22340068Y40580000D01*
X12000000Y40580000D01*
X12000000Y41018474D01*
X12000074Y41021518D01*
X12002353Y41068258D01*
X12007034Y41089125D01*
X12043361Y41176826D01*
X12056903Y41197092D01*
X12122908Y41263097D01*
X12143174Y41276639D01*
X12230875Y41312966D01*
X12249592Y41317165D01*
X20730000Y41317165D01*
X20736402Y41257623D01*
X20786647Y41122909D01*
X20786649Y41122906D01*
X20872808Y41007814D01*
X20872813Y41007809D01*
X20987905Y40921650D01*
X20987908Y40921648D01*
X21122622Y40871403D01*
X21182164Y40865001D01*
X21182178Y40865000D01*
X21330000Y40865000D01*
X21330000Y41690000D01*
X20730000Y41690000D01*
X20730000Y41317165D01*
X12249592Y41317165D01*
X12251740Y41317647D01*
X12298483Y41319926D01*
X12301527Y41320000D01*
X12699984Y41320000D01*
X12700000Y41320000D01*
X12759100Y41322882D01*
X12868304Y41368116D01*
X12951884Y41451696D01*
X12997118Y41560900D01*
X13000000Y41620000D01*
X13000000Y44518474D01*
X13000074Y44521518D01*
X13002353Y44568258D01*
X13007034Y44589125D01*
X13043361Y44676826D01*
X13056903Y44697092D01*
X13122908Y44763097D01*
X13143174Y44776639D01*
X13230875Y44812966D01*
X13251740Y44817647D01*
X13298483Y44819926D01*
X13301527Y44820000D01*
X19998473Y44820000D01*
X20001517Y44819926D01*
G37*
%TD.AperFunction*%
%TA.AperFunction,Conductor*%
G36*
X36701517Y44819926D02*
G01*
X36748258Y44817647D01*
X36769125Y44812966D01*
X36856823Y44776640D01*
X36877094Y44763094D01*
X36943093Y44697095D01*
X36956640Y44676822D01*
X36992963Y44589132D01*
X36997646Y44568259D01*
X36999926Y44521519D01*
X37000000Y44518474D01*
X37000000Y41619989D01*
X37000837Y41602839D01*
X37002882Y41560900D01*
X37048116Y41451696D01*
X37131696Y41368116D01*
X37240900Y41322882D01*
X37300000Y41320000D01*
X37698473Y41320000D01*
X37701517Y41319926D01*
X37748258Y41317647D01*
X37769125Y41312966D01*
X37856823Y41276640D01*
X37877094Y41263094D01*
X37943093Y41197095D01*
X37956640Y41176822D01*
X37987465Y41102405D01*
X37992963Y41089132D01*
X37997646Y41068259D01*
X37999926Y41021519D01*
X38000000Y41018474D01*
X38000000Y16121527D01*
X37999926Y16118482D01*
X37997646Y16071742D01*
X37992963Y16050869D01*
X37956642Y15963182D01*
X37943093Y15942906D01*
X37877094Y15876907D01*
X37856819Y15863359D01*
X37796337Y15838306D01*
X37769131Y15827037D01*
X37748258Y15822354D01*
X37703110Y15820152D01*
X37701516Y15820074D01*
X37698473Y15820000D01*
X29712500Y15820000D01*
X29668306Y15838306D01*
X29650000Y15882500D01*
X29650000Y16735720D01*
X29668306Y16779914D01*
X29712500Y16798220D01*
X29756694Y16779914D01*
X29764467Y16770443D01*
X29843248Y16652538D01*
X29982537Y16513249D01*
X30146319Y16403813D01*
X30146321Y16403812D01*
X30328302Y16328432D01*
X30328310Y16328430D01*
X30369999Y16320137D01*
X30370000Y16320137D01*
X30370000Y17123014D01*
X30379940Y17105797D01*
X30435795Y17049942D01*
X30504204Y17010446D01*
X30580504Y16990002D01*
X30659496Y16990002D01*
X30735796Y17010446D01*
X30804205Y17049942D01*
X30860060Y17105797D01*
X30870000Y17123014D01*
X30870000Y16320137D01*
X30911689Y16328430D01*
X30911697Y16328432D01*
X31093678Y16403812D01*
X31093680Y16403813D01*
X31257462Y16513249D01*
X31396751Y16652538D01*
X31506187Y16816320D01*
X31506188Y16816322D01*
X31581568Y16998303D01*
X31581570Y16998311D01*
X31619999Y17191509D01*
X31620000Y17191509D01*
X31620000Y17640000D01*
X30920000Y17640000D01*
X30920000Y18140000D01*
X31620000Y18140000D01*
X31620000Y18588491D01*
X31619999Y18588492D01*
X31581570Y18781690D01*
X31581568Y18781698D01*
X31506188Y18963679D01*
X31506187Y18963681D01*
X31396751Y19127463D01*
X31257462Y19266752D01*
X31093680Y19376188D01*
X31093678Y19376189D01*
X30911688Y19451572D01*
X30870000Y19459864D01*
X30870000Y18656987D01*
X30860060Y18674203D01*
X30804205Y18730058D01*
X30735796Y18769554D01*
X30659496Y18789998D01*
X30580504Y18789998D01*
X30504204Y18769554D01*
X30435795Y18730058D01*
X30379940Y18674203D01*
X30370000Y18656987D01*
X30370000Y19459864D01*
X30328311Y19451572D01*
X30146321Y19376189D01*
X30146319Y19376188D01*
X29982537Y19266752D01*
X29843248Y19127463D01*
X29764467Y19009558D01*
X29724693Y18982982D01*
X29677777Y18992314D01*
X29651201Y19032088D01*
X29650000Y19044281D01*
X29650000Y20935720D01*
X29668306Y20979914D01*
X29712500Y20998220D01*
X29756694Y20979914D01*
X29764467Y20970443D01*
X29843248Y20852538D01*
X29982537Y20713249D01*
X30146319Y20603813D01*
X30146321Y20603812D01*
X30328302Y20528432D01*
X30328310Y20528430D01*
X30369999Y20520137D01*
X30370000Y20520137D01*
X30370000Y21323000D01*
X30379940Y21305783D01*
X30435795Y21249928D01*
X30504204Y21210432D01*
X30580504Y21189988D01*
X30659496Y21189988D01*
X30735796Y21210432D01*
X30804205Y21249928D01*
X30860060Y21305783D01*
X30870000Y21323000D01*
X30870000Y20520137D01*
X30911689Y20528430D01*
X30911697Y20528432D01*
X31093678Y20603812D01*
X31093680Y20603813D01*
X31257462Y20713249D01*
X31396751Y20852538D01*
X31506187Y21016320D01*
X31506188Y21016322D01*
X31581568Y21198303D01*
X31581570Y21198311D01*
X31619999Y21391509D01*
X31620000Y21391509D01*
X31620000Y21640000D01*
X30920000Y21640000D01*
X30920000Y22140000D01*
X31620000Y22140000D01*
X31620000Y22388491D01*
X31619999Y22388492D01*
X31581570Y22581690D01*
X31581568Y22581698D01*
X31506188Y22763679D01*
X31506187Y22763681D01*
X31396751Y22927463D01*
X31257462Y23066752D01*
X31093680Y23176188D01*
X31093678Y23176189D01*
X30911688Y23251572D01*
X30870000Y23259864D01*
X30870000Y22457001D01*
X30860060Y22474217D01*
X30804205Y22530072D01*
X30735796Y22569568D01*
X30659496Y22590012D01*
X30580504Y22590012D01*
X30504204Y22569568D01*
X30435795Y22530072D01*
X30379940Y22474217D01*
X30370000Y22457001D01*
X30370000Y23259864D01*
X30328311Y23251572D01*
X30146321Y23176189D01*
X30146319Y23176188D01*
X29982537Y23066752D01*
X29843248Y22927463D01*
X29733812Y22763681D01*
X29733811Y22763679D01*
X29658431Y22581698D01*
X29658429Y22581690D01*
X29620000Y22388492D01*
X29620000Y22382500D01*
X29601694Y22338306D01*
X29557500Y22320000D01*
X29055370Y22320000D01*
X29011176Y22338306D01*
X28992870Y22382500D01*
X28993228Y22389181D01*
X28999999Y22452165D01*
X29000000Y22452178D01*
X29000000Y22800000D01*
X28012500Y22800000D01*
X27968306Y22818306D01*
X27950000Y22862500D01*
X27950000Y23300000D01*
X28450000Y23300000D01*
X29000000Y23300000D01*
X29000000Y23647823D01*
X28999999Y23647836D01*
X28993597Y23707378D01*
X28943352Y23842092D01*
X28943350Y23842095D01*
X28857191Y23957187D01*
X28857186Y23957192D01*
X28742094Y24043351D01*
X28742091Y24043353D01*
X28607377Y24093598D01*
X28547835Y24100000D01*
X28450000Y24100000D01*
X28450000Y23300000D01*
X27950000Y23300000D01*
X27950000Y23957810D01*
X27968306Y24002004D01*
X27974443Y24007387D01*
X28058282Y24071718D01*
X28154536Y24197159D01*
X28215044Y24343238D01*
X28227810Y24440208D01*
X28235682Y24499999D01*
X28235682Y24500002D01*
X28215045Y24656756D01*
X28215044Y24656758D01*
X28215044Y24656762D01*
X28167667Y24771141D01*
X28154537Y24802839D01*
X28154535Y24802843D01*
X28115317Y24853952D01*
X28102936Y24900158D01*
X28126853Y24941584D01*
X28164901Y24954500D01*
X28539285Y24954500D01*
X28583479Y24936194D01*
X29111194Y24408479D01*
X29129500Y24364285D01*
X29129500Y24155678D01*
X29135931Y24106828D01*
X29185936Y23999594D01*
X29269593Y23915937D01*
X29269594Y23915937D01*
X29269596Y23915935D01*
X29376827Y23865932D01*
X29425684Y23859500D01*
X29425690Y23859500D01*
X29774310Y23859500D01*
X29774316Y23859500D01*
X29823173Y23865932D01*
X29864855Y23885370D01*
X29912642Y23887456D01*
X29945063Y23860540D01*
X29979262Y23802712D01*
X30092711Y23689263D01*
X30230804Y23607596D01*
X30230805Y23607595D01*
X30369999Y23567156D01*
X30370000Y23567156D01*
X30870000Y23567156D01*
X31009194Y23607595D01*
X31009195Y23607596D01*
X31147288Y23689263D01*
X31147290Y23689264D01*
X31260736Y23802710D01*
X31260737Y23802712D01*
X31342404Y23940805D01*
X31342405Y23940806D01*
X31387167Y24094876D01*
X31387167Y24094881D01*
X31389931Y24130000D01*
X30870000Y24130000D01*
X30870000Y23567156D01*
X30370000Y23567156D01*
X30370000Y24630000D01*
X30870000Y24630000D01*
X31389931Y24630000D01*
X31387167Y24665120D01*
X31387167Y24665125D01*
X31342405Y24819195D01*
X31342404Y24819196D01*
X31260737Y24957289D01*
X31147288Y25070738D01*
X31009195Y25152405D01*
X31009194Y25152406D01*
X30870000Y25192847D01*
X30870000Y24630000D01*
X30370000Y24630000D01*
X30370000Y25192846D01*
X30369999Y25192847D01*
X30230805Y25152406D01*
X30230804Y25152405D01*
X30092711Y25070738D01*
X30092710Y25070736D01*
X29979264Y24957291D01*
X29945063Y24899461D01*
X29906809Y24870740D01*
X29864854Y24874632D01*
X29848183Y24882406D01*
X29823173Y24894068D01*
X29823171Y24894069D01*
X29823170Y24894069D01*
X29774320Y24900500D01*
X29774316Y24900500D01*
X29565715Y24900500D01*
X29521521Y24918806D01*
X29385397Y25054930D01*
X29367091Y25099124D01*
X29385397Y25143318D01*
X29421433Y25161089D01*
X29526755Y25174955D01*
X29526755Y25174956D01*
X29526762Y25174956D01*
X29672841Y25235464D01*
X29798282Y25331718D01*
X29870846Y25426285D01*
X34949500Y25426285D01*
X34949500Y25213716D01*
X34949501Y25213700D01*
X34982753Y25003760D01*
X34982753Y25003759D01*
X35048442Y24801590D01*
X35048446Y24801582D01*
X35144949Y24612183D01*
X35269897Y24440206D01*
X35420205Y24289898D01*
X35592182Y24164950D01*
X35592184Y24164949D01*
X35781588Y24068443D01*
X35983757Y24002754D01*
X36072244Y23988739D01*
X36193699Y23969502D01*
X36193705Y23969502D01*
X36193713Y23969500D01*
X36193715Y23969500D01*
X36406285Y23969500D01*
X36406287Y23969500D01*
X36616243Y24002754D01*
X36818412Y24068443D01*
X37007816Y24164949D01*
X37179792Y24289896D01*
X37330104Y24440208D01*
X37455051Y24612184D01*
X37551557Y24801588D01*
X37617246Y25003757D01*
X37650500Y25213713D01*
X37650500Y25426287D01*
X37617246Y25636243D01*
X37551557Y25838412D01*
X37455051Y26027816D01*
X37454404Y26028706D01*
X37330102Y26199795D01*
X37179794Y26350103D01*
X37007817Y26475051D01*
X36818418Y26571554D01*
X36818410Y26571558D01*
X36616241Y26637247D01*
X36406300Y26670499D01*
X36406288Y26670500D01*
X36406287Y26670500D01*
X36193713Y26670500D01*
X36193711Y26670500D01*
X36193699Y26670499D01*
X35983759Y26637247D01*
X35983758Y26637247D01*
X35781589Y26571558D01*
X35781581Y26571554D01*
X35592182Y26475051D01*
X35420205Y26350103D01*
X35269897Y26199795D01*
X35144949Y26027818D01*
X35048446Y25838419D01*
X35048442Y25838411D01*
X34982753Y25636242D01*
X34982753Y25636241D01*
X34949501Y25426301D01*
X34949500Y25426285D01*
X29870846Y25426285D01*
X29894536Y25457159D01*
X29955044Y25603238D01*
X29970906Y25723724D01*
X29975682Y25759999D01*
X29975682Y25760002D01*
X29955045Y25916756D01*
X29955044Y25916758D01*
X29955044Y25916762D01*
X29916805Y26009076D01*
X29916805Y26056909D01*
X29930351Y26077183D01*
X31525460Y27672290D01*
X31565021Y27740812D01*
X31585500Y27817239D01*
X31585500Y28833260D01*
X32474500Y28833260D01*
X32474500Y28466741D01*
X32484426Y28398610D01*
X32484426Y28398609D01*
X32484427Y28398607D01*
X32535802Y28293517D01*
X32618517Y28210802D01*
X32723607Y28159427D01*
X32791740Y28149500D01*
X32791741Y28149500D01*
X34508259Y28149500D01*
X34508260Y28149500D01*
X34576393Y28159427D01*
X34681483Y28210802D01*
X34764198Y28293517D01*
X34815573Y28398607D01*
X34825500Y28466740D01*
X34825500Y28833260D01*
X34815573Y28901393D01*
X34764198Y29006483D01*
X34681483Y29089198D01*
X34576393Y29140573D01*
X34576391Y29140574D01*
X34576390Y29140574D01*
X34522267Y29148460D01*
X34508260Y29150500D01*
X32791740Y29150500D01*
X32780121Y29148808D01*
X32723609Y29140574D01*
X32618515Y29089197D01*
X32535803Y29006485D01*
X32484426Y28901391D01*
X32474500Y28833260D01*
X31585500Y28833260D01*
X31585500Y30103260D01*
X32474500Y30103260D01*
X32474500Y29736741D01*
X32484426Y29668610D01*
X32484426Y29668609D01*
X32484427Y29668607D01*
X32535802Y29563517D01*
X32618517Y29480802D01*
X32723607Y29429427D01*
X32791740Y29419500D01*
X32791741Y29419500D01*
X34508259Y29419500D01*
X34508260Y29419500D01*
X34576393Y29429427D01*
X34681483Y29480802D01*
X34764198Y29563517D01*
X34815573Y29668607D01*
X34825500Y29736740D01*
X34825500Y30103260D01*
X34815573Y30171393D01*
X34764198Y30276483D01*
X34681483Y30359198D01*
X34576393Y30410573D01*
X34576391Y30410574D01*
X34576390Y30410574D01*
X34522267Y30418460D01*
X34508260Y30420500D01*
X32791740Y30420500D01*
X32780121Y30418808D01*
X32723609Y30410574D01*
X32618515Y30359197D01*
X32535803Y30276485D01*
X32484426Y30171391D01*
X32474500Y30103260D01*
X31585500Y30103260D01*
X31585500Y31373260D01*
X32474500Y31373260D01*
X32474500Y31006741D01*
X32484426Y30938610D01*
X32484426Y30938609D01*
X32484427Y30938607D01*
X32535802Y30833517D01*
X32618517Y30750802D01*
X32723607Y30699427D01*
X32791740Y30689500D01*
X32791741Y30689500D01*
X34508259Y30689500D01*
X34508260Y30689500D01*
X34576393Y30699427D01*
X34681483Y30750802D01*
X34764198Y30833517D01*
X34815573Y30938607D01*
X34825500Y31006740D01*
X34825500Y31373260D01*
X34815573Y31441393D01*
X34764198Y31546483D01*
X34681483Y31629198D01*
X34576393Y31680573D01*
X34576391Y31680574D01*
X34576390Y31680574D01*
X34522267Y31688460D01*
X34508260Y31690500D01*
X32791740Y31690500D01*
X32780121Y31688808D01*
X32723609Y31680574D01*
X32618515Y31629197D01*
X32535803Y31546485D01*
X32484426Y31441391D01*
X32474500Y31373260D01*
X31585500Y31373260D01*
X31585500Y31377063D01*
X31585499Y31377069D01*
X31569842Y31435499D01*
X31565021Y31453490D01*
X31525460Y31522012D01*
X31469511Y31577961D01*
X30404212Y32643260D01*
X32474500Y32643260D01*
X32474500Y32276741D01*
X32484426Y32208610D01*
X32484426Y32208609D01*
X32484427Y32208607D01*
X32535802Y32103517D01*
X32618517Y32020802D01*
X32723607Y31969427D01*
X32791740Y31959500D01*
X32791741Y31959500D01*
X34508259Y31959500D01*
X34508260Y31959500D01*
X34576393Y31969427D01*
X34681483Y32020802D01*
X34764198Y32103517D01*
X34815573Y32208607D01*
X34825500Y32276740D01*
X34825500Y32643260D01*
X34815573Y32711393D01*
X34764198Y32816483D01*
X34681483Y32899198D01*
X34576393Y32950573D01*
X34576391Y32950574D01*
X34576390Y32950574D01*
X34522267Y32958460D01*
X34508260Y32960500D01*
X32791740Y32960500D01*
X32780121Y32958808D01*
X32723609Y32950574D01*
X32618515Y32899197D01*
X32535803Y32816485D01*
X32484426Y32711391D01*
X32474500Y32643260D01*
X30404212Y32643260D01*
X30347012Y32700460D01*
X30347011Y32700461D01*
X30328075Y32711393D01*
X30278488Y32740022D01*
X30202068Y32760500D01*
X30202063Y32760500D01*
X29880581Y32760500D01*
X29836387Y32778806D01*
X29824432Y32795550D01*
X29814199Y32816481D01*
X29814197Y32816484D01*
X29731484Y32899197D01*
X29731483Y32899198D01*
X29626393Y32950573D01*
X29626391Y32950574D01*
X29626390Y32950574D01*
X29572267Y32958460D01*
X29558260Y32960500D01*
X27841740Y32960500D01*
X27774612Y32950720D01*
X27728240Y32962463D01*
X27705583Y32995130D01*
X27682031Y33076197D01*
X27682030Y33076198D01*
X27615215Y33189177D01*
X27608475Y33236535D01*
X27637196Y33274788D01*
X27684554Y33281528D01*
X27696453Y33277145D01*
X27773607Y33239427D01*
X27841740Y33229500D01*
X27841741Y33229500D01*
X29558259Y33229500D01*
X29558260Y33229500D01*
X29626393Y33239427D01*
X29731483Y33290802D01*
X29814198Y33373517D01*
X29865573Y33478607D01*
X29875500Y33546740D01*
X29875500Y33660194D01*
X29893806Y33704388D01*
X30102678Y33913260D01*
X32474500Y33913260D01*
X32474500Y33546741D01*
X32484426Y33478610D01*
X32484426Y33478609D01*
X32484427Y33478607D01*
X32535802Y33373517D01*
X32618517Y33290802D01*
X32723607Y33239427D01*
X32791740Y33229500D01*
X32791741Y33229500D01*
X34508259Y33229500D01*
X34508260Y33229500D01*
X34576393Y33239427D01*
X34681483Y33290802D01*
X34764198Y33373517D01*
X34815573Y33478607D01*
X34825500Y33546740D01*
X34825500Y33913260D01*
X34815573Y33981393D01*
X34764198Y34086483D01*
X34681483Y34169198D01*
X34576393Y34220573D01*
X34576391Y34220574D01*
X34576390Y34220574D01*
X34522267Y34228460D01*
X34508260Y34230500D01*
X32791740Y34230500D01*
X32780121Y34228808D01*
X32723609Y34220574D01*
X32723607Y34220573D01*
X32647282Y34183260D01*
X32618515Y34169197D01*
X32535803Y34086485D01*
X32484426Y33981391D01*
X32474500Y33913260D01*
X30102678Y33913260D01*
X31372678Y35183260D01*
X32474500Y35183260D01*
X32474500Y34816741D01*
X32484426Y34748610D01*
X32484426Y34748609D01*
X32484427Y34748607D01*
X32535802Y34643517D01*
X32618517Y34560802D01*
X32723607Y34509427D01*
X32791740Y34499500D01*
X32791741Y34499500D01*
X34508259Y34499500D01*
X34508260Y34499500D01*
X34576393Y34509427D01*
X34681483Y34560802D01*
X34764198Y34643517D01*
X34815573Y34748607D01*
X34825500Y34816740D01*
X34825500Y35183260D01*
X34815573Y35251393D01*
X34764198Y35356483D01*
X34681483Y35439198D01*
X34576393Y35490573D01*
X34576391Y35490574D01*
X34576390Y35490574D01*
X34522267Y35498460D01*
X34508260Y35500500D01*
X32791740Y35500500D01*
X32780121Y35498808D01*
X32723609Y35490574D01*
X32618515Y35439197D01*
X32535803Y35356485D01*
X32484426Y35251391D01*
X32474500Y35183260D01*
X31372678Y35183260D01*
X32367806Y36178388D01*
X32412000Y36196694D01*
X32456194Y36178388D01*
X32474500Y36134194D01*
X32474500Y36086741D01*
X32484426Y36018610D01*
X32484426Y36018609D01*
X32484427Y36018607D01*
X32535802Y35913517D01*
X32618517Y35830802D01*
X32723607Y35779427D01*
X32791740Y35769500D01*
X32791741Y35769500D01*
X34508259Y35769500D01*
X34508260Y35769500D01*
X34576393Y35779427D01*
X34681483Y35830802D01*
X34764198Y35913517D01*
X34815573Y36018607D01*
X34825500Y36086740D01*
X34825500Y36113929D01*
X34843806Y36158123D01*
X34888000Y36176429D01*
X34905437Y36173947D01*
X35064078Y36127857D01*
X35085000Y36126211D01*
X35585000Y36126211D01*
X35605921Y36127857D01*
X35761196Y36172969D01*
X35761197Y36172970D01*
X35900377Y36255280D01*
X35900379Y36255281D01*
X36014719Y36369621D01*
X36014720Y36369623D01*
X36097030Y36508803D01*
X36097031Y36508804D01*
X36139505Y36655000D01*
X35585000Y36655000D01*
X35585000Y36126211D01*
X35085000Y36126211D01*
X35085000Y36655000D01*
X34761569Y36655000D01*
X34717375Y36673306D01*
X34681484Y36709197D01*
X34681483Y36709198D01*
X34576393Y36760573D01*
X34576391Y36760574D01*
X34576390Y36760574D01*
X34522267Y36768460D01*
X34508260Y36770500D01*
X34508259Y36770500D01*
X33110806Y36770500D01*
X33066612Y36788806D01*
X33048306Y36833000D01*
X33066612Y36877194D01*
X33210612Y37021194D01*
X33254806Y37039500D01*
X34508259Y37039500D01*
X34508260Y37039500D01*
X34576393Y37049427D01*
X34681483Y37100802D01*
X34717375Y37136694D01*
X34761569Y37155000D01*
X36139505Y37155000D01*
X36139505Y37155001D01*
X36097031Y37301197D01*
X36097030Y37301198D01*
X36014720Y37440378D01*
X35900377Y37554721D01*
X35869078Y37573231D01*
X35840356Y37611484D01*
X35838928Y37635186D01*
X35838970Y37635511D01*
X35838972Y37635513D01*
X35845500Y37685099D01*
X35845499Y38044900D01*
X35838972Y38094487D01*
X35788224Y38203316D01*
X35788222Y38203318D01*
X35788222Y38203319D01*
X35703318Y38288223D01*
X35594486Y38338973D01*
X35544901Y38345500D01*
X35125108Y38345500D01*
X35125106Y38345500D01*
X35125100Y38345499D01*
X35075513Y38338972D01*
X35075511Y38338972D01*
X35075510Y38338971D01*
X34966681Y38288223D01*
X34881777Y38203319D01*
X34831027Y38094487D01*
X34824500Y38044908D01*
X34824500Y37987069D01*
X34806194Y37942875D01*
X34762000Y37924569D01*
X34717806Y37942875D01*
X34681484Y37979197D01*
X34681483Y37979198D01*
X34576393Y38030573D01*
X34576391Y38030574D01*
X34576390Y38030574D01*
X34522267Y38038460D01*
X34508260Y38040500D01*
X32791740Y38040500D01*
X32780121Y38038808D01*
X32723609Y38030574D01*
X32618515Y37979197D01*
X32535803Y37896485D01*
X32484426Y37791391D01*
X32478485Y37750613D01*
X32474500Y37723260D01*
X32474500Y37356740D01*
X32484427Y37288607D01*
X32488780Y37279703D01*
X32491743Y37231959D01*
X32476824Y37208060D01*
X29972883Y34704119D01*
X29928689Y34685813D01*
X29884495Y34704119D01*
X29866189Y34748313D01*
X29866840Y34757309D01*
X29875500Y34816740D01*
X29875500Y35183260D01*
X29865573Y35251393D01*
X29814198Y35356483D01*
X29731483Y35439198D01*
X29626393Y35490573D01*
X29626391Y35490574D01*
X29626390Y35490574D01*
X29572267Y35498460D01*
X29558260Y35500500D01*
X29558259Y35500500D01*
X28304806Y35500500D01*
X28260612Y35518806D01*
X28116612Y35662806D01*
X28098306Y35707000D01*
X28116612Y35751194D01*
X28160806Y35769500D01*
X29558259Y35769500D01*
X29558260Y35769500D01*
X29626393Y35779427D01*
X29731483Y35830802D01*
X29814198Y35913517D01*
X29865573Y36018607D01*
X29875500Y36086740D01*
X29875500Y36453260D01*
X29865573Y36521393D01*
X29814198Y36626483D01*
X29756685Y36683996D01*
X29738379Y36728190D01*
X29756685Y36772384D01*
X29781605Y36787122D01*
X29781590Y36787157D01*
X29781870Y36787279D01*
X29783444Y36788209D01*
X29785199Y36788720D01*
X29785200Y36788720D01*
X29926555Y36872316D01*
X29926557Y36872317D01*
X30042683Y36988443D01*
X30042684Y36988445D01*
X30126280Y37129799D01*
X30126281Y37129801D01*
X30172100Y37287512D01*
X30172296Y37290000D01*
X28512500Y37290000D01*
X28468306Y37308306D01*
X28450000Y37352500D01*
X28450000Y37790000D01*
X28950000Y37790000D01*
X30172296Y37790000D01*
X30172296Y37790001D01*
X30172100Y37792489D01*
X30126281Y37950200D01*
X30126280Y37950202D01*
X30042684Y38091556D01*
X29926555Y38207685D01*
X29785201Y38291281D01*
X29785199Y38291282D01*
X29627488Y38337101D01*
X29590650Y38340000D01*
X28950000Y38340000D01*
X28950000Y37790000D01*
X28450000Y37790000D01*
X28450000Y38340000D01*
X27809350Y38340000D01*
X27772513Y38337101D01*
X27772509Y38337101D01*
X27614800Y38291282D01*
X27614798Y38291281D01*
X27473444Y38207685D01*
X27473443Y38207683D01*
X27357317Y38091557D01*
X27357315Y38091556D01*
X27352729Y38083801D01*
X27314473Y38055082D01*
X27267116Y38061826D01*
X27264656Y38063488D01*
X27262838Y38064538D01*
X27116765Y38125043D01*
X27116755Y38125046D01*
X26960002Y38145682D01*
X26959998Y38145682D01*
X26803244Y38125046D01*
X26803234Y38125043D01*
X26657161Y38064538D01*
X26657158Y38064536D01*
X26531717Y37968283D01*
X26435464Y37842842D01*
X26435462Y37842839D01*
X26374957Y37696766D01*
X26374954Y37696756D01*
X26357493Y37564121D01*
X26333576Y37522694D01*
X26287370Y37510314D01*
X26251334Y37528085D01*
X26028806Y37750613D01*
X26010500Y37794807D01*
X26010500Y39750764D01*
X26028806Y39794958D01*
X26073000Y39813264D01*
X26081155Y39812730D01*
X26105684Y39809500D01*
X26105690Y39809500D01*
X26454310Y39809500D01*
X26454316Y39809500D01*
X26503173Y39815932D01*
X26544855Y39835370D01*
X26592642Y39837456D01*
X26625063Y39810540D01*
X26659262Y39752712D01*
X26772711Y39639263D01*
X26910804Y39557596D01*
X26910805Y39557595D01*
X27049999Y39517156D01*
X27050000Y39517156D01*
X27550000Y39517156D01*
X27689194Y39557595D01*
X27689195Y39557596D01*
X27827288Y39639263D01*
X27827290Y39639264D01*
X27940736Y39752710D01*
X27940737Y39752712D01*
X28022404Y39890805D01*
X28022405Y39890806D01*
X28067167Y40044876D01*
X28067167Y40044881D01*
X28069931Y40080000D01*
X27550000Y40080000D01*
X27550000Y39517156D01*
X27050000Y39517156D01*
X27050000Y40580000D01*
X27550000Y40580000D01*
X28069931Y40580000D01*
X28067167Y40615120D01*
X28067167Y40615125D01*
X28022405Y40769195D01*
X28022404Y40769196D01*
X27940737Y40907289D01*
X27827288Y41020738D01*
X27689195Y41102405D01*
X27689194Y41102406D01*
X27550000Y41142847D01*
X27550000Y40580000D01*
X27050000Y40580000D01*
X27050000Y40930935D01*
X27062914Y40968982D01*
X27084536Y40997159D01*
X27145044Y41143238D01*
X27160824Y41263097D01*
X27165682Y41299999D01*
X27165682Y41300002D01*
X27145045Y41456756D01*
X27145044Y41456758D01*
X27145044Y41456762D01*
X27084536Y41602841D01*
X27017657Y41690000D01*
X26988282Y41728283D01*
X26862841Y41824536D01*
X26862838Y41824538D01*
X26716765Y41885043D01*
X26716755Y41885046D01*
X26560002Y41905682D01*
X26559998Y41905682D01*
X26403244Y41885046D01*
X26403234Y41885043D01*
X26257161Y41824538D01*
X26257158Y41824536D01*
X26176047Y41762297D01*
X26129842Y41749917D01*
X26088415Y41773835D01*
X26075500Y41811882D01*
X26075500Y42017000D01*
X26093806Y42061194D01*
X26138000Y42079500D01*
X26419748Y42079500D01*
X26478231Y42091133D01*
X26478231Y42091134D01*
X26484269Y42092334D01*
X26484685Y42090242D01*
X26515315Y42090246D01*
X26515731Y42092334D01*
X26521768Y42091134D01*
X26521769Y42091133D01*
X26580252Y42079500D01*
X26919748Y42079500D01*
X26978231Y42091133D01*
X26978231Y42091134D01*
X26984269Y42092334D01*
X26984685Y42090242D01*
X27015315Y42090246D01*
X27015731Y42092334D01*
X27021768Y42091134D01*
X27021769Y42091133D01*
X27080252Y42079500D01*
X27097741Y42079500D01*
X27141935Y42061194D01*
X27154409Y42041784D01*
X27154504Y42041835D01*
X27155229Y42040507D01*
X27156301Y42038839D01*
X27156646Y42037913D01*
X27242813Y41922809D01*
X27357905Y41836650D01*
X27357908Y41836648D01*
X27492622Y41786403D01*
X27552164Y41780001D01*
X27552178Y41780000D01*
X27600000Y41780000D01*
X27900000Y41780000D01*
X27947822Y41780000D01*
X27947835Y41780001D01*
X28007377Y41786403D01*
X28142091Y41836648D01*
X28142094Y41836650D01*
X28257186Y41922809D01*
X28257191Y41922814D01*
X28343350Y42037906D01*
X28343352Y42037909D01*
X28393597Y42172623D01*
X28399999Y42232165D01*
X28400000Y42232178D01*
X28400000Y42630000D01*
X27900000Y42630000D01*
X27900000Y41780000D01*
X27600000Y41780000D01*
X27600000Y42252104D01*
X27600301Y42258230D01*
X27600500Y42260251D01*
X27600500Y42867500D01*
X27618806Y42911694D01*
X27663000Y42930000D01*
X28119812Y42930000D01*
X28181696Y42868116D01*
X28290900Y42822882D01*
X28350000Y42820000D01*
X29300000Y42820000D01*
X29399984Y42820000D01*
X29400000Y42820000D01*
X29459100Y42822882D01*
X29568304Y42868116D01*
X29651884Y42951696D01*
X29697118Y43060900D01*
X29700000Y43120000D01*
X29700000Y44518474D01*
X29700074Y44521518D01*
X29702353Y44568258D01*
X29707034Y44589125D01*
X29743361Y44676826D01*
X29756903Y44697092D01*
X29822908Y44763097D01*
X29843174Y44776639D01*
X29930875Y44812966D01*
X29951740Y44817647D01*
X29998483Y44819926D01*
X30001527Y44820000D01*
X36698473Y44820000D01*
X36701517Y44819926D01*
G37*
%TD.AperFunction*%
%TA.AperFunction,Conductor*%
G36*
X26262708Y33326194D02*
G01*
X26281014Y33282000D01*
X26262708Y33237806D01*
X26240281Y33215379D01*
X26240279Y33215378D01*
X26157969Y33076198D01*
X26157968Y33076197D01*
X26115494Y32930001D01*
X26115495Y32930000D01*
X27107500Y32930000D01*
X27151694Y32911694D01*
X27170000Y32867500D01*
X27170000Y31901211D01*
X27190921Y31902857D01*
X27346196Y31947969D01*
X27346197Y31947970D01*
X27485373Y32030278D01*
X27528012Y32072917D01*
X27572206Y32091223D01*
X27616401Y32072918D01*
X27668517Y32020802D01*
X27773607Y31969427D01*
X27841740Y31959500D01*
X27841741Y31959500D01*
X29558259Y31959500D01*
X29558260Y31959500D01*
X29626393Y31969427D01*
X29731483Y32020802D01*
X29814198Y32103517D01*
X29818524Y32112367D01*
X29824432Y32124450D01*
X29860288Y32156114D01*
X29880581Y32159500D01*
X30012142Y32159500D01*
X30056336Y32141194D01*
X30966194Y31231336D01*
X30984500Y31187142D01*
X30984500Y31011359D01*
X30966194Y30967165D01*
X30922000Y30948859D01*
X30877806Y30967165D01*
X30414511Y31430460D01*
X30405781Y31435500D01*
X30345989Y31470021D01*
X30345988Y31470022D01*
X30345987Y31470022D01*
X30269567Y31490500D01*
X30269562Y31490500D01*
X29880581Y31490500D01*
X29836387Y31508806D01*
X29824432Y31525550D01*
X29814199Y31546481D01*
X29814197Y31546484D01*
X29731484Y31629197D01*
X29731483Y31629198D01*
X29626393Y31680573D01*
X29626391Y31680574D01*
X29626390Y31680574D01*
X29572267Y31688460D01*
X29558260Y31690500D01*
X27841740Y31690500D01*
X27830121Y31688808D01*
X27773609Y31680574D01*
X27668515Y31629197D01*
X27585803Y31546485D01*
X27534426Y31441391D01*
X27524500Y31373260D01*
X27524500Y31006741D01*
X27534426Y30938610D01*
X27534426Y30938609D01*
X27534427Y30938607D01*
X27585802Y30833517D01*
X27668517Y30750802D01*
X27773607Y30699427D01*
X27841740Y30689500D01*
X27841741Y30689500D01*
X29558259Y30689500D01*
X29558260Y30689500D01*
X29626393Y30699427D01*
X29731483Y30750802D01*
X29814198Y30833517D01*
X29822031Y30849540D01*
X29824432Y30854450D01*
X29860288Y30886114D01*
X29880581Y30889500D01*
X30079641Y30889500D01*
X30123835Y30871194D01*
X30516194Y30478835D01*
X30534500Y30434641D01*
X30534500Y28193558D01*
X30516194Y28149364D01*
X29340022Y26973193D01*
X29295828Y26954887D01*
X29251634Y26973193D01*
X29246243Y26979340D01*
X29177050Y27069515D01*
X29051609Y27165768D01*
X29051606Y27165770D01*
X28905533Y27226275D01*
X28905523Y27226278D01*
X28748770Y27246914D01*
X28748766Y27246914D01*
X28592012Y27226278D01*
X28592002Y27226275D01*
X28445929Y27165770D01*
X28445926Y27165768D01*
X28320485Y27069515D01*
X28241199Y26966185D01*
X28199772Y26942267D01*
X28191614Y26941732D01*
X27111664Y26941732D01*
X27035242Y26921253D01*
X27035237Y26921251D01*
X26987714Y26893813D01*
X26987714Y26893812D01*
X26966720Y26881692D01*
X26388965Y26303937D01*
X26344771Y26285631D01*
X26300577Y26303937D01*
X26282806Y26339973D01*
X26266277Y26465524D01*
X26266276Y26465526D01*
X26266276Y26465530D01*
X26205768Y26611609D01*
X26183371Y26640797D01*
X26109514Y26737051D01*
X25984073Y26833304D01*
X25984070Y26833306D01*
X25837997Y26893811D01*
X25837987Y26893814D01*
X25681234Y26914450D01*
X25681229Y26914450D01*
X25604465Y26904345D01*
X25558260Y26916726D01*
X25534343Y26958153D01*
X25534343Y26974462D01*
X25544450Y27051232D01*
X25541913Y27070500D01*
X25523813Y27207988D01*
X25523812Y27207990D01*
X25523812Y27207994D01*
X25463304Y27354073D01*
X25440907Y27383261D01*
X25367050Y27479515D01*
X25241609Y27575768D01*
X25241606Y27575770D01*
X25095533Y27636275D01*
X25095523Y27636278D01*
X24938770Y27656914D01*
X24938766Y27656914D01*
X24782012Y27636278D01*
X24782002Y27636275D01*
X24635929Y27575770D01*
X24635926Y27575768D01*
X24510485Y27479515D01*
X24414232Y27354074D01*
X24414230Y27354071D01*
X24353725Y27207998D01*
X24353722Y27207988D01*
X24333086Y27051234D01*
X24333086Y27051231D01*
X24353722Y26894477D01*
X24353725Y26894467D01*
X24414230Y26748394D01*
X24414232Y26748391D01*
X24476812Y26666834D01*
X24489192Y26620629D01*
X24471421Y26584593D01*
X24182195Y26295366D01*
X24138001Y26277060D01*
X24093807Y26295366D01*
X24075501Y26339560D01*
X24075501Y26352853D01*
X24075500Y26352859D01*
X24065437Y26390410D01*
X24053318Y26435639D01*
X24020039Y26493279D01*
X24018866Y26495311D01*
X24010500Y26526548D01*
X24010500Y26774310D01*
X24010499Y26774323D01*
X24004068Y26823173D01*
X23971345Y26893347D01*
X23954065Y26930404D01*
X23954063Y26930406D01*
X23954063Y26930407D01*
X23870406Y27014064D01*
X23763172Y27064069D01*
X23714322Y27070500D01*
X23714316Y27070500D01*
X23365684Y27070500D01*
X23365679Y27070500D01*
X23316827Y27064069D01*
X23275143Y27044632D01*
X23227353Y27042547D01*
X23194934Y27069462D01*
X23160734Y27127292D01*
X23047288Y27240738D01*
X22909195Y27322405D01*
X22909194Y27322406D01*
X22770000Y27362847D01*
X22770000Y25737156D01*
X22909194Y25777595D01*
X22909195Y25777596D01*
X23047288Y25859263D01*
X23047290Y25859264D01*
X23160734Y25972709D01*
X23194934Y26030539D01*
X23233187Y26059261D01*
X23275145Y26055369D01*
X23316827Y26035932D01*
X23365668Y26029502D01*
X23365669Y26029502D01*
X23365684Y26029500D01*
X23365699Y26029500D01*
X23366081Y26029475D01*
X23366156Y26029438D01*
X23367712Y26029233D01*
X23367642Y26028706D01*
X23408986Y26008322D01*
X23424500Y25967108D01*
X23424500Y23863000D01*
X23406194Y23818806D01*
X23362000Y23800500D01*
X23108857Y23800500D01*
X23064663Y23818806D01*
X23048487Y23846824D01*
X23019800Y23953882D01*
X23019799Y23953886D01*
X22964596Y24049500D01*
X22964596Y24049501D01*
X22964594Y24049503D01*
X22960489Y24056614D01*
X22115722Y24901381D01*
X22102174Y24921657D01*
X22047509Y25053629D01*
X22047507Y25053632D01*
X21951254Y25179073D01*
X21825813Y25275326D01*
X21825810Y25275328D01*
X21679737Y25335833D01*
X21679727Y25335836D01*
X21541877Y25353984D01*
X21518784Y25361823D01*
X21487652Y25379798D01*
X21487649Y25379799D01*
X21463435Y25386287D01*
X21445362Y25391130D01*
X21373075Y25410500D01*
X21373071Y25410500D01*
X19568988Y25410500D01*
X19524794Y25428806D01*
X18653600Y26300000D01*
X21750069Y26300000D01*
X21752832Y26264881D01*
X21752832Y26264876D01*
X21797594Y26110806D01*
X21797595Y26110805D01*
X21879262Y25972712D01*
X21992711Y25859263D01*
X22130804Y25777596D01*
X22130805Y25777595D01*
X22269999Y25737156D01*
X22270000Y25737156D01*
X22270000Y26300000D01*
X21750069Y26300000D01*
X18653600Y26300000D01*
X18153600Y26800000D01*
X21750068Y26800000D01*
X22270000Y26800000D01*
X22270000Y27362846D01*
X22269999Y27362847D01*
X22130805Y27322406D01*
X22130804Y27322405D01*
X21992711Y27240738D01*
X21992710Y27240736D01*
X21879264Y27127290D01*
X21879262Y27127289D01*
X21797595Y26989196D01*
X21797594Y26989195D01*
X21752832Y26835125D01*
X21752832Y26835120D01*
X21750068Y26800000D01*
X18153600Y26800000D01*
X16120340Y28833260D01*
X27524500Y28833260D01*
X27524500Y28466741D01*
X27534426Y28398610D01*
X27534426Y28398609D01*
X27534427Y28398607D01*
X27585802Y28293517D01*
X27668517Y28210802D01*
X27773607Y28159427D01*
X27841740Y28149500D01*
X27841741Y28149500D01*
X29558259Y28149500D01*
X29558260Y28149500D01*
X29626393Y28159427D01*
X29731483Y28210802D01*
X29814198Y28293517D01*
X29865573Y28398607D01*
X29875500Y28466740D01*
X29875500Y28833260D01*
X29865573Y28901393D01*
X29814198Y29006483D01*
X29731483Y29089198D01*
X29626393Y29140573D01*
X29626391Y29140574D01*
X29626390Y29140574D01*
X29572267Y29148460D01*
X29558260Y29150500D01*
X27841740Y29150500D01*
X27830121Y29148808D01*
X27773609Y29140574D01*
X27668515Y29089197D01*
X27585803Y29006485D01*
X27534426Y28901391D01*
X27524500Y28833260D01*
X16120340Y28833260D01*
X14850340Y30103260D01*
X27524500Y30103260D01*
X27524500Y29736741D01*
X27534426Y29668610D01*
X27534426Y29668609D01*
X27534427Y29668607D01*
X27585802Y29563517D01*
X27668517Y29480802D01*
X27773607Y29429427D01*
X27841740Y29419500D01*
X27841741Y29419500D01*
X29558259Y29419500D01*
X29558260Y29419500D01*
X29626393Y29429427D01*
X29731483Y29480802D01*
X29814198Y29563517D01*
X29865573Y29668607D01*
X29875500Y29736740D01*
X29875500Y30103260D01*
X29865573Y30171393D01*
X29814198Y30276483D01*
X29731483Y30359198D01*
X29626393Y30410573D01*
X29626391Y30410574D01*
X29626390Y30410574D01*
X29572267Y30418460D01*
X29558260Y30420500D01*
X27841740Y30420500D01*
X27830121Y30418808D01*
X27773609Y30410574D01*
X27668515Y30359197D01*
X27585803Y30276485D01*
X27534426Y30171391D01*
X27524500Y30103260D01*
X14850340Y30103260D01*
X14640443Y30313157D01*
X14622137Y30357351D01*
X14640443Y30401545D01*
X14669676Y30418034D01*
X14800225Y30450210D01*
X14950852Y30529266D01*
X15078183Y30642071D01*
X15078188Y30642078D01*
X15157862Y30757504D01*
X15198032Y30783476D01*
X15209298Y30784500D01*
X22101362Y30784500D01*
X22101363Y30784500D01*
X22184149Y30806682D01*
X22258372Y30849535D01*
X23838836Y32430000D01*
X26115495Y32430000D01*
X26157968Y32283804D01*
X26157969Y32283803D01*
X26240279Y32144623D01*
X26354622Y32030280D01*
X26493802Y31947970D01*
X26493803Y31947969D01*
X26649078Y31902857D01*
X26670000Y31901211D01*
X26670000Y32430000D01*
X26115495Y32430000D01*
X23838836Y32430000D01*
X24735030Y33326195D01*
X24779224Y33344500D01*
X26218514Y33344500D01*
X26262708Y33326194D01*
G37*
%TD.AperFunction*%
%TD*%
M02*
