%TF.GenerationSoftware,KiCad,Pcbnew,8.0.3*%
%TF.CreationDate,2024-07-13T10:44:47+10:00*%
%TF.ProjectId,EC Debug,45432044-6562-4756-972e-6b696361645f,rev?*%
%TF.SameCoordinates,Original*%
%TF.FileFunction,Legend,Top*%
%TF.FilePolarity,Positive*%
%FSLAX46Y46*%
G04 Gerber Fmt 4.6, Leading zero omitted, Abs format (unit mm)*
G04 Created by KiCad (PCBNEW 8.0.3) date 2024-07-13 10:44:47*
%MOMM*%
%LPD*%
G01*
G04 APERTURE LIST*
G04 Aperture macros list*
%AMRoundRect*
0 Rectangle with rounded corners*
0 $1 Rounding radius*
0 $2 $3 $4 $5 $6 $7 $8 $9 X,Y pos of 4 corners*
0 Add a 4 corners polygon primitive as box body*
4,1,4,$2,$3,$4,$5,$6,$7,$8,$9,$2,$3,0*
0 Add four circle primitives for the rounded corners*
1,1,$1+$1,$2,$3*
1,1,$1+$1,$4,$5*
1,1,$1+$1,$6,$7*
1,1,$1+$1,$8,$9*
0 Add four rect primitives between the rounded corners*
20,1,$1+$1,$2,$3,$4,$5,0*
20,1,$1+$1,$4,$5,$6,$7,0*
20,1,$1+$1,$6,$7,$8,$9,0*
20,1,$1+$1,$8,$9,$2,$3,0*%
G04 Aperture macros list end*
%ADD10C,0.200000*%
%ADD11C,0.120000*%
%ADD12O,1.000000X1.800000*%
%ADD13O,1.000000X2.200000*%
%ADD14R,0.600000X1.100000*%
%ADD15R,0.300000X1.100000*%
%ADD16RoundRect,0.135000X-0.135000X-0.185000X0.135000X-0.185000X0.135000X0.185000X-0.135000X0.185000X0*%
%ADD17RoundRect,0.140000X-0.170000X0.140000X-0.170000X-0.140000X0.170000X-0.140000X0.170000X0.140000X0*%
%ADD18R,0.300000X1.000000*%
%ADD19R,0.700000X1.150000*%
%ADD20RoundRect,0.135000X0.135000X0.185000X-0.135000X0.185000X-0.135000X-0.185000X0.135000X-0.185000X0*%
%ADD21C,1.000000*%
%ADD22C,2.200000*%
%ADD23RoundRect,0.150000X0.512500X0.150000X-0.512500X0.150000X-0.512500X-0.150000X0.512500X-0.150000X0*%
%ADD24RoundRect,0.140000X0.140000X0.170000X-0.140000X0.170000X-0.140000X-0.170000X0.140000X-0.170000X0*%
%ADD25RoundRect,0.140000X-0.140000X-0.170000X0.140000X-0.170000X0.140000X0.170000X-0.140000X0.170000X0*%
%ADD26RoundRect,0.150000X-0.825000X-0.150000X0.825000X-0.150000X0.825000X0.150000X-0.825000X0.150000X0*%
%ADD27R,1.500000X1.500000*%
G04 APERTURE END LIST*
D10*
%TO.C,J2*%
X20440000Y22370000D02*
X21340000Y22370000D01*
X20440000Y15600000D02*
X20440000Y22370000D01*
X28820000Y22300000D02*
X29580000Y22300000D01*
X29580000Y22300000D02*
X29580000Y15600000D01*
X29580000Y15600000D02*
X20440000Y15600000D01*
D11*
%TO.C,R4*%
X23466359Y40710000D02*
X23773641Y40710000D01*
X23466359Y39950000D02*
X23773641Y39950000D01*
%TO.C,C2*%
X34975000Y37492836D02*
X34975000Y37277164D01*
X35695000Y37492836D02*
X35695000Y37277164D01*
%TO.C,R1*%
X22876359Y26930000D02*
X23183641Y26930000D01*
X22876359Y26170000D02*
X23183641Y26170000D01*
%TO.C,R3*%
X26943641Y40710000D02*
X26636359Y40710000D01*
X26943641Y39950000D02*
X26636359Y39950000D01*
%TO.C,C4*%
X26560000Y33267836D02*
X26560000Y33052164D01*
X27280000Y33267836D02*
X27280000Y33052164D01*
%TO.C,TP5*%
X15250000Y31110000D02*
G75*
G02*
X13850000Y31110000I-700000J0D01*
G01*
X13850000Y31110000D02*
G75*
G02*
X15250000Y31110000I700000J0D01*
G01*
%TO.C,U1*%
X15890000Y36510000D02*
X15090000Y36510000D01*
X15890000Y36510000D02*
X16690000Y36510000D01*
X15890000Y33390000D02*
X15090000Y33390000D01*
X15890000Y33390000D02*
X17690000Y33390000D01*
%TO.C,C1*%
X17137836Y37470000D02*
X16922164Y37470000D01*
X17137836Y36750000D02*
X16922164Y36750000D01*
%TO.C,C3*%
X14642164Y33150000D02*
X14857836Y33150000D01*
X14642164Y32430000D02*
X14857836Y32430000D01*
%TO.C,U2*%
X31175000Y38155000D02*
X27725000Y38155000D01*
X31175000Y38155000D02*
X33125000Y38155000D01*
X31175000Y28035000D02*
X29225000Y28035000D01*
X31175000Y28035000D02*
X33125000Y28035000D01*
%TO.C,TP1*%
X18350000Y44770000D02*
X20250000Y44770000D01*
X18350000Y42870000D02*
X18350000Y44770000D01*
X20250000Y44770000D02*
X20250000Y42870000D01*
X20250000Y42870000D02*
X18350000Y42870000D01*
%TO.C,TP3*%
X29750000Y44770000D02*
X31650000Y44770000D01*
X29750000Y42870000D02*
X29750000Y44770000D01*
X31650000Y44770000D02*
X31650000Y42870000D01*
X31650000Y42870000D02*
X29750000Y42870000D01*
%TO.C,R2*%
X30263641Y24760000D02*
X29956359Y24760000D01*
X30263641Y24000000D02*
X29956359Y24000000D01*
%TD*%
%LPC*%
D12*
%TO.C,J2*%
X19380000Y21890000D03*
D13*
X19380000Y17890000D03*
D12*
X30620000Y21890000D03*
D13*
X30620000Y17890000D03*
D14*
X21800000Y23050000D03*
X22600000Y23050000D03*
D15*
X23750000Y23050000D03*
X24750000Y23050000D03*
X25250000Y23050000D03*
X26250000Y23050000D03*
D14*
X28200000Y23050000D03*
X27400000Y23050000D03*
D15*
X26750000Y23050000D03*
X25750000Y23050000D03*
X24250000Y23050000D03*
X23250000Y23050000D03*
%TD*%
D16*
%TO.C,R4*%
X23110000Y40330000D03*
X24130000Y40330000D03*
%TD*%
D17*
%TO.C,C2*%
X35335000Y37865000D03*
X35335000Y36905000D03*
%TD*%
D18*
%TO.C,P1*%
X22250000Y42780000D03*
X22750000Y42780000D03*
X23250000Y42780000D03*
X23750000Y42780000D03*
X24250000Y42780000D03*
X24750000Y42780000D03*
X25250000Y42780000D03*
X25750000Y42780000D03*
X26250000Y42780000D03*
X26750000Y42780000D03*
X27250000Y42780000D03*
X27750000Y42780000D03*
D19*
X21580000Y41940000D03*
%TD*%
D16*
%TO.C,R1*%
X22520000Y26550000D03*
X23540000Y26550000D03*
%TD*%
D20*
%TO.C,R3*%
X27300000Y40330000D03*
X26280000Y40330000D03*
%TD*%
D17*
%TO.C,C4*%
X26920000Y33640000D03*
X26920000Y32680000D03*
%TD*%
D21*
%TO.C,TP5*%
X14550000Y31110000D03*
%TD*%
D22*
%TO.C,H1*%
X13700000Y25320000D03*
%TD*%
D23*
%TO.C,U1*%
X17027500Y34000000D03*
X17027500Y34950000D03*
X17027500Y35900000D03*
X14752500Y35900000D03*
X14752500Y34000000D03*
%TD*%
D24*
%TO.C,C1*%
X17510000Y37110000D03*
X16550000Y37110000D03*
%TD*%
D25*
%TO.C,C3*%
X14270000Y32790000D03*
X15230000Y32790000D03*
%TD*%
D26*
%TO.C,U2*%
X28700000Y37540000D03*
X28700000Y36270000D03*
X28700000Y35000000D03*
X28700000Y33730000D03*
X28700000Y32460000D03*
X28700000Y31190000D03*
X28700000Y29920000D03*
X28700000Y28650000D03*
X33650000Y28650000D03*
X33650000Y29920000D03*
X33650000Y31190000D03*
X33650000Y32460000D03*
X33650000Y33730000D03*
X33650000Y35000000D03*
X33650000Y36270000D03*
X33650000Y37540000D03*
%TD*%
D27*
%TO.C,TP1*%
X19300000Y43820000D03*
%TD*%
D22*
%TO.C,H2*%
X36300000Y25320000D03*
%TD*%
D27*
%TO.C,TP3*%
X30700000Y43820000D03*
%TD*%
D20*
%TO.C,R2*%
X30620000Y24380000D03*
X29600000Y24380000D03*
%TD*%
%LPD*%
M02*
