M48
; DRILL file {KiCad 8.0.3} date 2024-07-13T10:44:47+1000
; FORMAT={-:-/ absolute / inch / decimal}
; #@! TF.CreationDate,2024-07-13T10:44:47+10:00
; #@! TF.GenerationSoftware,Kicad,Pcbnew,8.0.3
; #@! TF.FileFunction,Plated,1,2,PTH
FMAT,2
INCH
; #@! TA.AperFunction,Plated,PTH,ViaDrill
T1C0.0118
; #@! TA.AperFunction,Plated,PTH,ViaDrill
T2C0.0157
; #@! TA.AperFunction,Plated,PTH,ComponentDrill
T3C0.0236
%
G90
G05
T1
X0.7424Y1.7421
X0.7424Y1.7071
X0.7774Y1.7421
X0.7774Y1.7071
X1.1899Y1.7421
X1.1899Y1.7071
X1.2274Y1.7421
X1.2274Y1.7071
T2
X0.5768Y0.7031
X0.6217Y1.6866
X0.8474Y0.9744
X0.9818Y1.065
X0.9996Y1.1461
X1.0111Y1.0358
X1.0457Y1.626
X1.0614Y1.478
X1.0878Y0.9646
X1.1318Y1.0489
X1.1563Y1.0142
X1.3736Y1.678
X1.3933Y0.6906
T3
G00X0.763Y0.8776
M15
G01X0.763Y0.8461
M16
G05
G00X0.763Y0.728
M15
G01X0.763Y0.6807
M16
G05
G00X1.2055Y0.8776
M15
G01X1.2055Y0.8461
M16
G05
G00X1.2055Y0.728
M15
G01X1.2055Y0.6807
M16
G05
M30
