%TF.GenerationSoftware,KiCad,Pcbnew,8.0.3*%
%TF.CreationDate,2024-07-13T10:44:47+10:00*%
%TF.ProjectId,EC Debug,45432044-6562-4756-972e-6b696361645f,rev?*%
%TF.SameCoordinates,Original*%
%TF.FileFunction,Profile,NP*%
%FSLAX46Y46*%
G04 Gerber Fmt 4.6, Leading zero omitted, Abs format (unit mm)*
G04 Created by KiCad (PCBNEW 8.0.3) date 2024-07-13 10:44:47*
%MOMM*%
%LPD*%
G01*
G04 APERTURE LIST*
%TA.AperFunction,Profile*%
%ADD10C,0.050000*%
%TD*%
G04 APERTURE END LIST*
D10*
X12300000Y15820000D02*
X20350000Y15820000D01*
X20600000Y42820000D02*
G75*
G02*
X20300000Y43120000I0J300000D01*
G01*
X30000000Y44820000D02*
X36700000Y44820000D01*
X13000000Y41620000D02*
X13000000Y44520000D01*
X12300000Y41320000D02*
X12700000Y41320000D01*
X38000000Y41020000D02*
X38000000Y16120000D01*
X29300000Y42820000D02*
X29400000Y42820000D01*
X29700000Y43120000D02*
X29700000Y44520000D01*
X20300000Y43120000D02*
X20300000Y44520000D01*
X20600000Y42820000D02*
X20700000Y42820000D01*
X29700000Y44520000D02*
G75*
G02*
X30000000Y44820000I300000J0D01*
G01*
X38000000Y16120000D02*
G75*
G02*
X37700000Y15820000I-300000J0D01*
G01*
X13000000Y41620000D02*
G75*
G02*
X12700000Y41320000I-300000J0D01*
G01*
X20000000Y44820000D02*
X13300000Y44820000D01*
X37300000Y41320000D02*
X37700000Y41320000D01*
X29700000Y43120000D02*
G75*
G02*
X29400000Y42820000I-300000J0D01*
G01*
X12300000Y15820000D02*
G75*
G02*
X12000000Y16120000I0J300000D01*
G01*
X12000000Y41020000D02*
G75*
G02*
X12300000Y41320000I300000J0D01*
G01*
X37000000Y41620000D02*
X37000000Y44520000D01*
X12000000Y41020000D02*
X12000000Y16120000D01*
X37700000Y41320000D02*
G75*
G02*
X38000000Y41020000I0J-300000D01*
G01*
X37700000Y15820000D02*
X29650000Y15820000D01*
X36700000Y44820000D02*
G75*
G02*
X37000000Y44520000I0J-300000D01*
G01*
X20000000Y44820000D02*
G75*
G02*
X20300000Y44520000I0J-300000D01*
G01*
X37300000Y41320000D02*
G75*
G02*
X37000000Y41620000I0J300000D01*
G01*
X13000000Y44520000D02*
G75*
G02*
X13300000Y44820000I300000J0D01*
G01*
%TO.C,J2*%
X20350000Y22320000D02*
X20350000Y15820000D01*
X20350000Y22320000D02*
X29650000Y22320000D01*
X29650000Y22320000D02*
X29650000Y15820000D01*
%TO.C,P1*%
X21650000Y42820000D02*
X20700000Y42820000D01*
X21950000Y43480000D02*
X21950000Y43120000D01*
X22250000Y43780000D02*
X27750000Y43780000D01*
X28050000Y43480000D02*
X28050000Y43120000D01*
X28350000Y42820000D02*
X29300000Y42820000D01*
X21950000Y43480000D02*
G75*
G02*
X22250000Y43780000I300000J0D01*
G01*
X21950000Y43120000D02*
G75*
G02*
X21650000Y42820000I-300000J0D01*
G01*
X27750000Y43780000D02*
G75*
G02*
X28050000Y43480000I0J-300000D01*
G01*
X28350000Y42820000D02*
G75*
G02*
X28050000Y43120000I0J300000D01*
G01*
%TD*%
M02*
